<?xml version="1.0" encoding="utf-8"?>
<!DOCTYPE svg PUBLIC "-//W3C//DTD SVG 20010904//EN" "http://www.w3.org/TR/2001/REC-SVG-20010904/DTD/svg10.dtd">
<svg version="1.0" xmlns="http://www.w3.org/2000/svg" width="930px" height="512px" viewBox="0 0 930 512" preserveAspectRatio="xMidYMid meet">
 <g fill="#000000">
  <path d="M158 502 c-3.4 -4.3 -7.6 -7 -11 -7 -1.1 0 -2 -0.4 -2 -0.8 0 -2.2 -15.9 -17.1 -20.9 -19.5 -3 -1.5 -6.8 -4.1 -8.6 -5.9 -1.7 -1.8 -4.8 -4.6 -6.9 -6.3 -2.1 -1.6 -6.1 -5 -9 -7.5 -2.9 -2.5 -7.8 -6.5 -11 -9 -3.1 -2.5 -7.6 -6.2 -9.9 -8.3 -2.3 -2.1 -6.7 -5.6 -9.8 -7.7 -3.1 -2.1 -6.8 -5.3 -8.2 -6.9 -1.4 -1.7 -2.9 -3.1 -3.4 -3.1 -0.4 0 -2.8 -1.8 -5.2 -4 -2.4 -2.2 -4.6 -4 -5 -4 -0.6 0 -12.8 -11.7 -19.5 -18.9 -2.3 -2.4 -6.1 -6.4 -8.4 -8.8 -5.5 -5.6 -6.7 -9.4 -4.6 -14 0.9 -1.8 2.1 -3.3 2.8 -3.3 2.1 0 6.7 2.9 13.9 8.9 3.9 3.4 10.7 9 15 12.6 4.2 3.5 10.5 7.7 14 9.3 3.4 1.6 6.8 3.7 7.6 4.6 0.7 0.9 1.9 1.6 2.5 1.6 2.2 0.1 4.9 2.9 4.2 4.6 -0.6 1.5 -0.8 1.5 -3.1 0 -2.7 -1.8 -4.5 -1.4 -4.5 0.9 0 1.5 21.8 20.6 34.4 30 12.1 9.2 20.5 14.5 22.5 14.5 2.4 0 7.1 5.5 7.1 8.3 0.1 2.1 5.5 8.5 6.5 7.6 0.2 -0.3 -0.7 -4.5 -2.1 -9.5 -1.3 -4.9 -2.9 -10.7 -3.5 -12.8 -0.5 -2.2 -1.6 -5.1 -2.4 -6.5 -0.8 -1.4 -2.6 -5.3 -4 -8.6 -1.5 -3.3 -3.1 -6.9 -3.7 -8 -0.6 -1.1 -1.7 -4 -2.4 -6.5 -1.3 -4.9 -3 -9.8 -5 -14.5 -0.7 -1.6 -2.2 -6.4 -3.4 -10.5 -1.2 -4.1 -2.8 -8.2 -3.6 -9.1 -0.8 -0.9 -2.1 -4 -3 -7 -0.9 -3 -2.2 -6.4 -3 -7.7 -0.8 -1.2 -3.2 -7.3 -5.3 -13.5 -7.9 -22.9 -13.9 -41.3 -14.9 -45.2 -0.5 -2.2 -2.8 -9.2 -5.1 -15.5 -2.4 -6.3 -5 -14.2 -5.9 -17.5 -0.8 -3.3 -2.6 -7.5 -3.9 -9.3 -1.2 -1.9 -2.5 -5 -2.8 -7.1 -1.6 -10.5 -4.8 -20.1 -6.8 -20.1 -1.1 0 -8.4 7.5 -11.2 11.5 -1.1 1.6 -4.2 5.4 -6.9 8.4 -5.7 6.5 -8.4 12 -8.6 17.6 -0.3 6.7 -0.1 7.3 3.2 10.5 3.2 3 3.2 3.1 1.4 4.5 -1.1 0.8 -2.8 1.5 -3.9 1.5 -3.1 0 -13.1 -8.6 -12.3 -10.6 1.2 -3.1 -6.2 -4.6 -12.1 -2.3 -2.4 0.9 -3 0.7 -4.4 -1 -2.6 -3.2 -1.4 -10.4 2.5 -14.5 6.3 -6.6 7.5 -8.3 8.1 -10.9 0.4 -1.5 1.1 -2.4 1.6 -2.1 0.5 0.3 1.2 -0.8 1.5 -2.5 0.4 -1.7 1 -3.1 1.5 -3.1 0.4 0 1.1 -0.9 1.4 -2 0.4 -1.1 2.3 -3.7 4.3 -5.6 2 -2 4.4 -4.8 5.2 -6.3 0.8 -1.5 3.1 -5.2 5.1 -8.2 2 -3 3.9 -6.4 4.3 -7.7 0.4 -1.3 2.5 -5 4.7 -8.2 2.1 -3.3 3.9 -6.5 3.9 -7.2 0 -0.7 2 -4.3 4.5 -8 2.5 -3.7 4.5 -7.4 4.5 -8.2 0 -0.8 0.4 -1.8 1 -2.1 0.5 -0.3 1 -1.7 1 -3 0 -1.3 0.6 -3 1.4 -3.8 2.1 -2.1 7.6 -12.4 7.7 -14.5 0 -0.9 0.9 -3 2 -4.7 1 -1.6 2.4 -4.2 3 -5.8 0.6 -1.5 1.5 -2.7 1.9 -2.7 0.4 0 1 -1 1.4 -2.3 0.7 -3.1 7.9 -10.7 10 -10.7 2.9 0 6.3 4.7 7 9.6 1.2 9.2 0.8 12.9 -1.9 15.4 -1.4 1.3 -2.5 3 -2.5 3.7 0 0.8 -0.7 1.6 -1.5 1.9 -0.8 0.4 -1.5 1.2 -1.5 1.9 0 0.6 -0.9 2 -2 3 -1.5 1.4 -8 13.6 -8 15.1 0 0.2 1.6 0.4 3.5 0.4 3.1 0 3.5 0.3 3.5 2.5 0 1.4 0.7 3.6 1.5 4.9 1.5 2.3 1.4 2.7 -2.8 9.2 -6.4 9.9 -8.7 14.9 -8.7 18.6 0 4.2 2.4 17.7 4.4 24.8 7.6 26.8 8.3 29.2 15.5 48.5 2.9 7.7 6.6 18.2 8.3 23.4 1.6 5.2 3.8 10.6 4.9 12 1 1.4 4.8 9.6 8.4 18.1 3.6 8.5 8.4 19.4 10.5 24.2 2.2 4.7 4 9 4 9.4 0 0.4 1.2 2.5 2.6 4.5 1.4 2.1 4.3 8.9 6.4 15.1 5.6 16.6 8.8 24.9 10.9 28.8 1.1 1.9 2.4 6.2 3 9.5 0.6 3.3 1.7 9.4 2.5 13.5 0.9 4.9 3.2 11.2 6.5 18 2.8 5.7 5.1 11.5 5.1 12.8 0 1.3 1.3 4 3 5.8 5.8 6.7 4.8 13.6 -2.2 14.2 -3.1 0.3 -3.9 -0.2 -6.8 -3.8z m8.3 -1.5 c0.4 -0.8 -0.9 -3.2 -2.8 -5.6 -2.4 -2.8 -3.5 -5.1 -3.5 -7.4 0 -1.8 -0.7 -3.8 -1.5 -4.5 -0.8 -0.7 -1.5 -1.6 -1.5 -2.1 0 -0.5 -1.6 -4.2 -3.5 -8.3 -2.3 -4.8 -4.1 -10.5 -5.1 -16.2 -2.2 -13.3 -3.2 -17.3 -6.4 -23.9 -1.5 -3.3 -5.1 -13 -8 -21.5 -2.8 -8.5 -6 -16.7 -7 -18.2 -2 -2.8 -9.1 -18.1 -14.5 -31.3 -4.1 -10.2 -12.7 -28.8 -13.6 -29.5 -0.4 -0.3 -2.3 -5.4 -4.2 -11.5 -4.8 -14.7 -10.2 -29.7 -12 -33.2 -0.9 -1.6 -2.3 -5.8 -3.2 -9.3 -0.9 -3.6 -3.4 -12.4 -5.6 -19.7 -4.1 -13.7 -6.9 -27.6 -6.9 -35.3 0 -4.6 3.2 -12.6 8.4 -20.8 1.9 -3.1 2.4 -4.9 2 -7.2 -0.6 -2.6 -1.1 -3 -4 -3 -3.2 0 -3.4 -0.2 -3.4 -3.6 0 -4.4 5.7 -16.5 10 -21.3 1.6 -1.8 3 -3.7 3 -4.2 0 -0.4 1.2 -2.2 2.6 -3.9 2.3 -2.7 2.6 -3.7 2.1 -8 -0.3 -2.7 -1.1 -5.9 -1.8 -7.2 -1.2 -2.2 -1.2 -2.2 -4.1 1.2 -1.6 1.9 -3.6 5 -4.6 6.7 -3 5.7 -6.9 13.5 -10.7 21.6 -2 4.2 -4 7.7 -4.6 7.7 -0.5 0 -0.9 1.1 -0.9 2.5 0 2.5 -4.1 10.8 -8.6 17.4 -1.3 2 -2.4 4 -2.4 4.5 0 0.5 -2 4.2 -4.5 8.2 -2.5 3.9 -4.5 7.6 -4.5 8.1 0 1.4 -10.5 17.5 -13.9 21.3 -1.7 1.9 -4 4.5 -5.2 5.8 -1.1 1.2 -2.2 3.6 -2.6 5.2 -0.3 1.6 -1.2 3.5 -1.9 4.1 -0.8 0.6 -1.4 1.7 -1.4 2.3 0 0.6 -2.5 3.8 -5.5 7 -3.1 3.3 -5.5 6.9 -5.5 8.1 0 2 0.4 2.1 6.4 1.7 6.8 -0.4 10.6 0.8 10.6 3.6 0.1 1.7 2.2 5.2 3.2 5.2 0.3 0 0.7 -3.5 1 -7.7 0.5 -9.3 2.1 -12.8 9 -21 2.9 -3.3 6.2 -7.3 7.3 -8.8 1.1 -1.4 3.9 -4.6 6.2 -7.1 3.6 -3.8 4.7 -4.4 8.2 -4.4 3.8 0 4.2 0.3 6 4.3 1 2.3 2.4 7.1 3.1 10.7 0.6 3.6 2.4 9 3.8 12 1.5 3 3.4 8.2 4.4 11.5 0.9 3.3 3.6 11.6 6.1 18.5 2.5 6.9 5.3 15.6 6.2 19.3 3 12.1 18.7 55 25 68.2 1.3 2.8 2.9 7 3.5 9.5 0.7 2.5 2.7 8.3 4.5 13 1.9 4.7 3.7 10.3 4.1 12.5 0.4 2.2 1 4.2 1.4 4.5 1 0.7 6 12 6 13.5 0 0.7 0.6 1.8 1.4 2.4 0.7 0.6 1.9 3.3 2.6 5.9 0.6 2.6 1.6 5.6 2.1 6.7 1.6 3.6 3.9 15.5 3.9 20.1 0 4.4 0 4.4 -3.6 4.4 -2.8 0 -4.3 -0.8 -7 -3.5 -1.9 -2 -3.4 -4.5 -3.4 -5.7 0 -2.6 -3.7 -6.8 -5.9 -6.8 -3.1 -0.1 -33.9 -22 -36.3 -26 -0.7 -1.1 -1.8 -2 -2.5 -2 -0.6 0 -2.3 -1.3 -3.6 -3 -1.4 -1.6 -2.9 -3 -3.4 -3 -0.4 0 -3.4 -2.3 -6.5 -5.1 -5.6 -4.9 -5.8 -5.3 -5.8 -10 0 -4.9 0 -4.9 -6.2 -7.7 -5.9 -2.7 -18.1 -11.9 -27.1 -20.4 -2.2 -2.1 -4.3 -3.8 -4.7 -3.8 -0.4 0 -1.5 -0.9 -2.5 -2 -2.2 -2.5 -4.5 -2.6 -4.5 -0.2 0.1 2.2 2 4.6 4.3 5.5 0.9 0.4 2.7 2.2 3.8 4.2 1.2 1.9 2.4 3.5 2.8 3.5 0.4 0 1.4 1.1 2.1 2.5 0.7 1.4 1.8 2.5 2.4 2.5 0.6 0 4.5 3.4 8.6 7.5 4.1 4.1 7.9 7.5 8.4 7.5 0.5 0 1.9 1 3.1 2.3 3.9 4 15.8 14.1 19.4 16.6 5.1 3.4 9.1 7.3 9.1 8.8 0 0.7 0.9 1.3 2 1.3 1.1 0 2.5 0.9 3.2 2 0.7 1.1 1.7 2 2.1 2 0.9 0 7 4.7 14.9 11.5 2.6 2.2 6.3 5.3 8.3 7 1.9 1.6 3.5 3.8 3.5 4.7 0 1.1 0.8 1.8 1.9 1.8 1.1 0 2.3 0.5 2.7 1.1 0.3 0.6 2.2 1.8 4.2 2.6 5.3 2.2 13.3 8.5 17.7 13.9 5.6 6.9 5.7 7 8.9 7.8 4 1 8.2 4.1 10.3 7.6 1.9 3.3 3.8 3.9 4.6 1.5z"/>
  <path d="M177.2 475 c-2.2 -0.9 -6.2 -8.4 -6.2 -11.6 0 -0.8 -1.6 -5.5 -3.5 -10.4 -6.4 -16.3 -9.5 -29.3 -9.6 -40 0 -7.4 -0.5 -10.2 -1.9 -12.5 -1 -1.6 -2.2 -5.9 -2.5 -9.5 -0.4 -3.6 -2 -11.7 -3.6 -18 -1.5 -6.3 -3.1 -14 -3.4 -17 -1 -9.2 -2.6 -18.4 -3.7 -21.3 -0.6 -1.5 -1.2 -4.6 -1.3 -7 -0.4 -6.1 -5.9 -29.4 -12 -50.2 -1.8 -6 -4 -14.6 -4.8 -19 -0.9 -4.4 -2.5 -11.1 -3.6 -15 -1.1 -3.8 -3.6 -14.2 -5.7 -23 -3.6 -16 -7.3 -25.1 -11.5 -28.7 -6.1 -5.2 -2.7 -17.8 4.7 -17.8 2.1 0 2.4 -0.5 2.4 -3.7 0 -2 0.9 -5.6 2.1 -8 2.6 -5.5 5.9 -6.6 9.5 -3.2 3.7 3.4 4.5 5.2 5.6 12.8 0.5 3.6 1.3 9.2 1.8 12.5 0.7 4.4 2.9 9.5 9.1 20.9 4.5 8.4 9.4 17 10.9 19.2 1.5 2.2 7.1 11.9 12.5 21.5 5.4 9.6 12.4 21.3 15.5 26 22 33.1 26 38.2 33.3 42.3 2.8 1.6 4 3 4.8 6.1 1.7 6.2 3.5 9.2 12.3 20.5 4.5 5.6 9.8 12.8 11.8 15.8 2 3 6.5 8.7 10 12.6 6.1 6.9 9.5 11.2 17.8 23 3.8 5.4 6 6.5 6 3.1 0 -0.8 0.7 -1.4 1.5 -1.4 1.1 0 1.5 1.1 1.6 3.8 0 2 0.3 3.1 0.6 2.5 0.7 -2 10.1 -1.7 12.1 0.4 0.9 0.9 2.4 3.7 3.2 6.2 1.2 3.8 2.1 4.8 5.2 5.9 2 0.8 4.9 1.2 6.3 0.8 2.2 -0.6 2.5 -1.2 2.5 -4.9 0 -4 -0.3 -4.5 -3.8 -6.5 -3.3 -1.8 -4.3 -3.3 -6.6 -9.4 -1.6 -4 -4.1 -10.3 -5.7 -13.9 -3.6 -8.1 -4.6 -13.2 -5.4 -27.9 -0.6 -11.1 -2.2 -28.6 -4.6 -49.2 -1.5 -13.1 -1 -14.8 4.1 -14.8 2.9 0 4 0.4 4 1.5 0 0.8 0.5 1.5 1.1 1.5 1.7 0 16.9 16.4 16.9 18.2 0 0.3 1.7 2.3 3.8 4.5 3.6 3.8 17.7 21.8 19.7 25.3 2.1 3.5 3.9 5.1 7.4 6.6 4.8 2 7.1 4.3 7.1 7.1 0 1.7 0.6 2.3 2.3 2.3 2.7 0 5.7 2.8 5.7 5.3 0 1 0.8 1.7 2 1.7 1.1 0 2.3 0.7 2.6 1.5 0.4 0.8 1.2 1.5 2 1.5 0.8 0 1.4 0.5 1.4 1 0 2.3 2.8 0.8 3.3 -1.7 0.8 -3.9 -1.5 -6.9 -6 -8 -3.8 -0.9 -3.8 -0.9 -4.4 -11.8 -0.6 -11.9 -3.8 -26.9 -7.4 -35.2 -3.5 -7.9 -12.2 -37 -14.1 -47.3 -1.2 -6.6 -9.5 -37.5 -12.9 -48 -7 -21.8 -15.4 -60.5 -15.6 -71.3 0 -6.3 -2 -11 -5.1 -12.5 -3.3 -1.5 -4.3 -4.8 -5.8 -18.7 -1.3 -11.3 -2.6 -15.8 -4.1 -13.4 -1.5 2.3 -1 10.7 1 18.8 1.1 4.2 2.7 11.2 3.6 15.6 2.1 10.5 13.2 57.6 15.1 64 0.8 2.8 1.9 9.1 2.3 14 0.5 5 1.4 10.3 2 11.8 0.6 1.6 1.1 4.7 1.1 7 0 8.3 6.1 32.7 8.2 32.7 0.4 0 0.8 1.2 0.8 2.8 0 3 2.1 13.8 4.4 22.2 3.8 14.3 6.1 27.9 5.2 31.5 -0.5 2.1 -1.2 2.5 -4.5 2.5 -3.2 0 -4.2 -0.6 -7.1 -4.3 -1.9 -2.3 -3.8 -4.3 -4.2 -4.5 -1 -0.5 -14.8 -16.8 -14.8 -17.6 0 -0.4 -1.4 -1.9 -3 -3.3 -2.7 -2.2 -15.7 -18.5 -18.5 -23.1 -0.5 -0.9 -1.6 -2.2 -2.2 -3 -0.8 -0.8 -1.3 -4.2 -1.3 -8.7 0 -4.8 -0.4 -7.7 -1.2 -8.2 -0.7 -0.4 -3.6 -0.6 -6.4 -0.5 -4.6 0.3 -5.3 0.1 -7.7 -2.7 -1.4 -1.7 -3 -3.1 -3.4 -3.1 -1.5 0 -7 -6.3 -7.8 -8.7 -0.8 -2.9 -3.8 -3 -6.5 -0.1 -2.6 2.8 -2.3 3.7 2.9 6.8 3.2 1.8 4.7 3.5 5.6 6.4 0.8 2.2 2.1 4.3 2.9 4.8 0.9 0.5 1.6 2 1.6 3.3 0 1.8 0.6 2.4 2.7 2.7 1.8 0.2 3.5 1.5 5 3.8 2.9 4.6 3.9 5.7 5.3 6.2 1.5 0.5 3.2 14.2 2.5 19.3 -0.3 2.2 -1.2 5.1 -2 6.5 -1.2 2.3 -1.1 2.8 1 5.6 1.9 2.4 2.5 5.1 3.4 13.9 0.6 6 1.1 13.7 1.1 17.3 0 5.6 -0.3 6.5 -2.1 6.9 -1.7 0.5 -1.9 1.1 -1.3 3.7 0.3 1.7 1 3.3 1.5 3.4 0.5 0.2 0.9 2.4 0.9 4.8 0 4.5 0 4.5 -3.7 4.2 -2.9 -0.2 -3.9 -0.8 -4.1 -2.3 -0.2 -1.2 -1.2 -2.7 -2.4 -3.4 -2.1 -1.3 -2 -1.2 0.2 2.5 3.5 5.7 8 14.7 8 16.2 0 0.7 0.8 2.4 1.7 3.8 1.2 1.8 1.8 5.6 2.1 13 0.4 9 0.3 10.4 -1.1 10.4 -1.7 0 -2.3 -2.3 -3.1 -12.8 -0.2 -3.4 -0.8 -6.8 -1.4 -7.5 -0.5 -0.7 -1.8 -3.4 -2.8 -6.2 -1.7 -4.6 -4 -8.8 -15.5 -28.5 -2.1 -3.6 -5 -9.5 -6.4 -13 -3.8 -9.4 -7.7 -16.9 -11.3 -21.5 -1.2 -1.5 -2.2 -3.7 -2.2 -4.9 0 -1.2 -0.4 -2.6 -0.9 -3.2 -1.5 -1.5 -8.9 -16.2 -11 -21.8 -1 -2.8 -4.1 -9.4 -6.9 -14.6 -2.7 -5.3 -5.3 -10.7 -5.7 -12 -0.4 -1.4 -2.6 -5.4 -4.8 -9 -2.2 -3.6 -5.6 -9.4 -7.5 -13 -1.9 -3.6 -4 -7.2 -4.7 -8 -0.7 -0.8 -1.6 -2.6 -2 -4 -0.4 -1.4 -3.1 -7.2 -6.1 -13 -7.4 -14.8 -8.6 -17.8 -7.4 -19.9 1.2 -2.3 5.4 -5.1 7.7 -5.1 1 0 2.6 -0.9 3.6 -2 2.4 -2.8 6.1 -2.5 10.1 1 4.7 4.2 7.5 10.7 8.6 20.3 1 8.2 2.9 16.2 5.5 22.7 0.8 1.9 2.4 6.8 3.6 10.7 2.1 7.4 9.6 23.6 13.1 28.6 1.1 1.5 3.7 6 5.7 10 5.8 11 11.7 21.3 14 24.6 1.2 1.7 5.6 9.7 9.8 17.8 8 15.8 13.3 24.7 14 23.9 0.3 -0.3 0.2 -6.4 -0.2 -13.6 -0.7 -12.2 -0.9 -13.3 -3.6 -17 -3.5 -4.8 -3.6 -6.3 -0.8 -12.5 1.8 -4 2 -5.8 1.4 -11.1 -0.6 -5.8 -2.3 -9.4 -4.5 -9.4 -0.4 0 -1.1 -1.1 -1.4 -2.4 -0.3 -1.4 -3.5 -5.4 -7.1 -8.9 -3.8 -3.8 -6.5 -7.3 -6.5 -8.5 0 -2.1 -4.3 -6.2 -6.4 -6.2 -0.7 0 -2.5 -1.3 -3.9 -2.8 -2.3 -2.4 -2.6 -3.3 -1.8 -5.3 1.7 -4.6 6.2 -7.7 11.5 -8.1 4.7 -0.3 5 -0.2 5.7 2.6 0.9 3.3 2.6 5.4 9.2 10.9 4.8 4 4.8 4 8.3 2.3 3.5 -1.6 3.5 -1.6 6.5 1.3 2.7 2.7 2.9 3.5 2.9 10.5 0 6.8 0.3 7.8 2.8 10.8 1.6 1.8 5.3 6.5 8.3 10.4 6.9 9 22.1 26.8 26.8 31.4 2 1.9 4.8 5.1 6.3 7 1.5 1.9 3 3.1 3.4 2.7 0.8 -0.8 -3.2 -22.2 -5.6 -29.7 -1 -3 -2.4 -9.3 -3.1 -14 -0.7 -4.7 -1.6 -9 -2.1 -9.6 -2.7 -3.6 -7.7 -24.3 -7.8 -31.9 0 -1.6 -0.6 -5.9 -1.4 -9.5 -0.8 -3.6 -1.9 -9.6 -2.4 -13.5 -0.9 -6.7 -2.5 -13.9 -9 -41 -5.2 -21.4 -6 -24.9 -7.8 -33.5 -0.9 -4.7 -2.5 -11.8 -3.5 -15.9 -2.5 -9.8 -2.7 -20.3 -0.5 -23.6 2 -3 4.9 -3.2 7.5 -0.6 2.1 2.1 2.4 3.4 4.2 18.1 1.4 11.3 2.3 14 5 14.7 2.8 0.8 4.7 4.9 5.4 12.4 1.7 17.3 6.5 40.5 13.1 62.9 6.2 21 14.4 51.5 16.9 63 2.2 9.9 10.3 36.6 12.5 41 3.8 7.6 8.1 29.2 8 39.6 -0.1 6 -0.1 6 3.9 7.4 5.9 1.9 7.3 4.6 6.5 12.6 -0.7 7.1 -2 8.5 -5.7 6.5 -6 -3.2 -7.7 -4.6 -15.5 -12.6 -5.2 -5.5 -9.9 -9.3 -12.7 -10.5 -2.6 -1.1 -5.3 -3.3 -6.7 -5.3 -6.8 -10.3 -34.4 -44.7 -35.9 -44.7 -0.4 0 -1.7 -1.6 -2.9 -3.5 -1.2 -1.9 -2.9 -3.5 -3.7 -3.5 -1.7 0 -1.7 0.8 1.1 24 0.8 6.9 2 20.2 2.6 29.5 1 16.3 2.9 27.5 5 30 0.6 0.7 2.1 4.3 3.4 8.1 4 11.4 5.3 13.8 8.8 15.8 4.5 2.7 4.8 3.2 4.8 10.4 0 5.9 -0.3 6.6 -3.1 9.3 -3.2 3 -3.2 3 -5.4 0.9 -1.2 -1.1 -3.1 -2 -4.3 -2 -3.6 0 -7 -2.1 -8.1 -5.1 -0.6 -1.6 -1.6 -4.2 -2.2 -5.9 -0.8 -2 -1.8 -3 -3.3 -3 -1.1 0 -3.2 -0.3 -4.5 -0.7 -2.1 -0.5 -2.3 -0.3 -1.6 1.8 0.4 1.3 1.8 3.3 3.1 4.5 2.3 1.9 2.4 2.6 1.9 7 -0.6 4.3 -0.3 5.4 2 8.8 3.4 5 4.3 9.4 2.1 10.2 -0.8 0.3 -1.8 2.1 -2.2 4 -0.8 4.2 -2.5 5.6 -6.1 5.2 -1.9 -0.2 -3.1 -1.1 -3.8 -2.8 -0.5 -1.4 -2.4 -5.2 -4 -8.5 -2.9 -5.5 -3.3 -6 -6.1 -5.7 -2.4 0.2 -3.7 -0.5 -6.5 -3.6 -1.8 -2.1 -4.1 -5 -4.9 -6.4 -5.1 -9 -8.9 -15 -12.7 -19.8 -2.3 -3 -5.2 -7.4 -6.5 -9.7 -4.7 -8.4 -11.2 -18.9 -14.8 -23.8 -2.1 -2.8 -4.7 -7 -5.9 -9.3 -3.7 -7.3 -6.1 -6.8 -11.1 2.7 -5.1 9.5 -12.5 18.7 -17.1 21.2 -2.3 1.3 -4.7 3.3 -5.3 4.4 -0.6 1.1 -1.7 2.5 -2.5 3.1 -1.3 1 -1.3 2 -0.2 7 1.6 7.4 9.6 37.1 10.9 40.4 1 2.6 0.5 21.3 -0.6 24 -0.3 0.8 -0.6 3.1 -0.7 5 -0.2 2.2 -0.9 3.9 -2.4 4.8 -1.3 0.9 -2.1 2.5 -2.1 4.1 0 2.5 -1.6 5.2 -2.9 5 -0.4 0 -1.6 -0.4 -2.9 -0.9z m5.1 -12.4 c0.9 -1 1.7 -2.5 1.7 -3.4 0.1 -0.9 0.5 -6.2 1 -11.7 0.7 -8.5 0.5 -10.8 -1 -15.5 -5 -15 -10 -36.8 -10 -43.2 0 -3.8 0.4 -6.8 0.9 -6.8 0.6 0 1.6 -1.2 2.3 -2.7 0.7 -1.5 3.1 -3.6 5.3 -4.7 4.2 -2.2 12.2 -12.1 16.5 -20.4 3.8 -7.2 5.9 -9.2 9.7 -9.2 4.7 0 7.1 1.5 8.7 5.4 0.7 1.8 3.4 6 5.9 9.4 2.5 3.4 6.1 9 8.1 12.4 7 11.9 11.1 18.5 14.2 22.4 3.5 4.5 10.4 16.1 10.4 17.5 0 0.5 0.4 0.9 1 0.9 0.5 0 1.2 1.1 1.6 2.4 0.3 1.4 1.2 2.7 2 3 0.8 0.3 1.4 1.2 1.4 2 0 1.5 2.9 2.6 7.2 2.6 2.9 0 5.1 3 8.3 11.3 1.9 5 3.8 5.7 4.3 1.6 0.2 -1.3 0.6 -3.1 0.9 -3.9 0.9 -2.2 0.3 -4.3 -1.5 -5.6 -1.2 -0.9 -1.7 -2.9 -1.9 -7.2 -0.1 -4.6 -0.6 -6.5 -2.2 -8.1 -1.3 -1.3 -2.1 -3.4 -2.1 -5.6 0 -3.2 -0.2 -3.5 -3 -3.5 -2.4 0 -3.6 -1 -7 -5.7 -7.6 -10.8 -12.5 -17.1 -18.2 -23.6 -3.2 -3.5 -5.8 -6.7 -5.8 -7 0 -0.3 -1.3 -2.1 -3 -3.9 -1.6 -1.8 -3 -3.8 -3 -4.4 0 -0.6 -0.9 -1.9 -2 -2.9 -1.1 -1 -2 -2.1 -2 -2.5 0 -0.5 -1.3 -2.2 -3 -4 -1.6 -1.8 -3 -4.1 -3 -5.1 0 -1 -0.7 -1.9 -1.4 -1.9 -2.3 0 -9.3 -10.6 -10.7 -16.1 -1 -3.9 -2 -5.4 -4.2 -6.6 -4 -2 -11.7 -9.2 -11.7 -10.9 0 -0.8 -0.4 -1.4 -0.9 -1.4 -0.6 0 -4.2 -4.8 -8.2 -10.7 -4 -6 -9.8 -14.6 -12.9 -19.3 -6.3 -9.3 -6.9 -10.3 -17.8 -30 -4.1 -7.4 -8.7 -15.3 -10.2 -17.5 -3.5 -5.1 -16.9 -29 -18.7 -33.2 -0.7 -1.8 -2 -8.3 -2.9 -14.5 -2.3 -16.4 -5.6 -22.2 -8.8 -15.3 -0.9 1.8 -1.6 4.8 -1.6 6.7 0 4.4 -0.9 5.6 -4.5 6 -2 0.2 -3.5 1.3 -4.8 3.5 -1.8 3.2 -1.8 3.2 0.2 5 1.2 0.9 2.1 2.3 2.1 2.9 0 0.7 0.7 1.4 1.5 1.8 0.8 0.3 1.5 1 1.5 1.6 0 0.6 0.9 2.3 1.9 3.8 1.8 2.4 10.1 33.7 10.1 37.9 0 1 1.1 5.3 2.5 9.6 1.4 4.3 3.2 11.3 3.9 15.5 0.8 4.2 2.8 12.2 4.5 17.7 4.4 15 10.4 39.4 12.1 49.5 3.3 20.4 3.2 20 6.2 20 2.2 0 3.1 0.7 4.2 3.3 3.8 8.6 5.5 14.8 6.1 21.5 0.7 7.2 0.7 7.2 -3 7.2 -3 0 -3.6 0.3 -3.1 1.6 0.3 0.9 0.6 2.4 0.6 3.5 0 1.4 0.7 1.9 2.5 1.9 4.1 0 7.4 2.8 8.6 7.4 3.2 11.6 5.4 29 4.5 35 -0.7 4.4 -0.9 4.6 -4.1 4.6 -3.4 0 -3.4 0 -1 6.8 1.3 3.7 3.5 9.7 4.9 13.5 1.4 3.7 2.6 7.4 2.6 8.3 0 0.8 0.7 3.1 1.6 5.2 1.6 3.7 1.6 3.7 2.8 0.6 0.6 -1.7 1.9 -3.9 2.9 -4.8z m-13.3 -39.1 c0 -4.9 -2 -13.5 -3.2 -13.5 -0.9 0 -0.6 6 0.8 14.8 0.6 4.1 2.4 3.2 2.4 -1.3z m-3.4 -22.5 c-1.5 -7.1 -2.9 -10 -4.9 -10 -1.6 0 0.1 7.6 2.9 13.2 1.4 2.7 2.7 4.8 3 4.5 0.3 -0.2 -0.2 -3.7 -1 -7.7z m-7.2 -30.2 c-0.4 -2.9 -1.4 -7.3 -2.4 -9.8 -1 -2.5 -2.1 -5.4 -2.4 -6.4 -1.4 -4.3 -1.5 -0.5 -0.1 6.7 1.4 7.6 3.9 14.7 5 14.7 0.3 0 0.3 -2.4 -0.1 -5.2z m109.6 -32.5 c-0.7 -2.1 -1.6 -4.2 -2.1 -4.7 -0.5 -0.6 -0.9 -1.8 -0.9 -2.7 0 -0.9 -0.7 -2.2 -1.5 -2.9 -0.8 -0.7 -2.5 -3.9 -3.7 -7.2 -1.2 -3.3 -3.7 -7.9 -5.6 -10.2 -1.9 -2.2 -4.6 -6.7 -6 -9.8 -1.3 -3.2 -3.1 -5.8 -3.8 -5.8 -1.8 0 -1.8 1.9 0 3.9 0.7 0.9 2.8 5 4.5 9.1 3.3 7.9 3.4 8.1 11.3 22.5 6.8 12.5 10.4 16.2 7.8 7.8z m-27.1 -47 c1.7 -0.4 1.4 -1.2 -2 -7.5 -2.2 -3.9 -4.4 -7.6 -4.9 -8.3 -0.5 -0.6 -2.5 -4 -4.3 -7.6 -1.9 -3.5 -6.2 -11.6 -9.6 -17.9 -3.3 -6.3 -7.3 -15.3 -8.7 -20 -1.4 -4.7 -3.9 -12.3 -5.4 -17 -1.5 -4.7 -3.1 -11.8 -3.4 -15.9 -0.7 -8.2 -3.3 -15.2 -7.3 -19.3 -3 -3.1 -4.8 -3.5 -5.7 -1.3 -0.3 0.9 -1.8 1.5 -3.8 1.5 -2.2 0 -3.7 0.7 -4.5 2 -1.1 1.7 -0.4 3.7 5.3 15.2 3.6 7.3 7.2 14.7 8.1 16.3 4.7 9 8.9 16.5 11.3 20 2.5 3.9 7.9 14.7 15.5 31 2 4.4 6.3 13.4 9.5 20 3.2 6.6 6.2 13.1 6.7 14.5 0.7 2.3 0.8 2.1 1.1 -1.4 0.2 -2.7 0.9 -4 2.1 -4.3z"/>
  <path d="M178 363.7 c0 -4.9 2.2 -8.7 5.1 -8.7 1.3 0 1.9 -0.7 1.9 -2.4 0 -3.9 3.6 -7.6 7.5 -7.6 2.5 0 3.4 0.5 3.9 2.3 1.1 4.3 0.5 7.2 -1.9 9.6 -1.4 1.3 -2.5 3.1 -2.5 4.1 0 0.9 -0.9 2.9 -2.1 4.4 -1.7 2.2 -2.8 2.6 -7 2.6 -4.9 0 -4.9 0 -4.9 -4.3z m7.9 -1.3 c1.2 -1.5 2.1 -3.3 2.1 -4 0 -0.7 1.4 -2.8 3 -4.6 3.7 -4.1 4.2 -7.2 0.5 -3.8 -1.4 1.3 -2.5 2.7 -2.5 3 0 0.4 -1.6 2.5 -3.5 4.6 -3.3 3.6 -4.6 7.4 -2.6 7.4 0.5 0 1.9 -1.2 3 -2.6z"/>
  <path d="M165.3 359.5 c-0.7 -0.7 -1.7 -4.3 -2.3 -7.8 -1 -6.5 -6.2 -27.4 -7.9 -31.9 -0.4 -1.2 -1.4 -5.6 -2.1 -9.5 -1.1 -6.7 -1.4 -7.3 -3.6 -7.3 -3 0 -5.5 -4.7 -8.4 -16 -2.6 -10 -2.4 -13.4 0.8 -13.8 2.7 -0.4 2.7 0.1 0.1 -8.2 -1.2 -4 -1.9 -8.7 -1.7 -11.6 0.3 -4.9 0.3 -4.9 4.1 -5.2 3.2 -0.3 3.9 0 4.4 1.7 0.3 1.2 1.1 2.1 1.8 2.1 0.8 0 2.4 1.7 3.6 3.8 1.3 2 3.8 5.5 5.6 7.8 1.8 2.3 3.3 4.4 3.3 4.9 0 0.4 1.1 1.5 2.3 2.5 2.2 1.7 12.7 16.1 12.7 17.4 0 0.2 1.2 1.7 2.6 3.3 1.5 1.5 5.5 7.9 9 14.2 5.4 9.6 6.4 12.1 6.4 16.2 0 3.8 -0.6 5.5 -2.8 8.1 -1.5 1.8 -3.9 5.1 -5.4 7.3 -1.4 2.2 -3.7 5.2 -5.1 6.7 -1.4 1.5 -3 4.3 -3.7 6.2 -0.6 1.9 -1.8 4 -2.7 4.7 -0.8 0.7 -1.9 2.3 -2.4 3.6 -0.6 1.8 -1.6 2.3 -4.1 2.3 -1.8 -0.1 -3.8 -0.7 -4.5 -1.5z m4.7 -3.8 c0 -0.8 1.1 -2.4 2.5 -3.7 1.4 -1.3 2.5 -2.8 2.5 -3.4 0 -1.3 4.4 -8 10.5 -16.1 8.5 -11.4 8.1 -9.6 4.4 -16.2 -1.7 -3.2 -3.5 -6.3 -4 -6.8 -0.4 -0.6 -2 -3.5 -3.6 -6.5 -3.2 -6.3 -9.5 -15.1 -20.8 -29.4 -4.5 -5.6 -9.1 -11.7 -10.2 -13.6 -1.2 -2 -3.3 -4.6 -4.7 -5.9 -2.6 -2.4 -2.6 -2.4 -2.6 0.7 0 1.7 0.9 5.5 2 8.4 1 2.9 2.6 9.6 3.4 14.8 0.9 5.2 2.5 12.1 3.6 15.3 1.1 3.2 3 10 4 15 1.1 5.1 3.4 14.2 5 20.2 2.9 10.6 4.3 16.8 5.5 24.8 0.6 3.4 2.5 5.3 2.5 2.4z m-22.4 -67.2 c-0.4 -1.9 -1.1 -3.5 -1.6 -3.5 -1.3 0 -1.2 1 0.1 4.9 1.4 4.1 2.3 3.3 1.5 -1.4z"/>
  <path d="M128.9 240.4 c-0.5 -1.5 -0.9 -4.2 -0.7 -5.8 0.3 -2.8 0.7 -3.1 3.9 -3.4 2.8 -0.2 3.7 0.1 4.8 2.1 0.7 1.3 1.1 3.9 0.9 5.8 -0.3 3.1 -0.6 3.4 -4.1 3.7 -3.3 0.3 -3.8 0 -4.8 -2.4z"/>
  <path d="M480.7 460.7 c-5.2 -2.6 -7.3 -6.4 -8.1 -14.5 -0.4 -3.6 -1.5 -8 -2.5 -9.7 -2.3 -3.6 -10.4 -24.4 -12.5 -31.8 -2.5 -8.5 -6.7 -21 -8.2 -24.2 -1.4 -3.1 -6.3 -18.3 -10.9 -34 -1.4 -4.9 -3.5 -11 -4.5 -13.5 -1 -2.5 -2.4 -6.7 -3.1 -9.5 -1.9 -7.7 -8.5 -27.6 -10.3 -31 -0.9 -1.6 -1.6 -4.2 -1.6 -5.7 0 -3.3 -1.6 -7.8 -2.9 -7.8 -1.3 0 -7.2 12.6 -7.8 16.9 -0.3 2 -1.2 4.8 -1.9 6.3 -2.7 5.3 -0.8 15.2 5.1 26.9 1.4 2.6 4 12.1 6 21 4.4 20.7 6.1 27.2 8.5 32.5 2.7 5.8 2.5 7.2 -1.4 14.6 -4.6 8.7 -8.4 12.8 -11.8 12.8 -3.9 0 -5.2 -3.1 -8.3 -20.5 -2.7 -15.6 -5 -24.8 -9.1 -37.5 -1.3 -4.1 -4.2 -14.4 -6.3 -22.7 -2.2 -8.4 -4.6 -16.3 -5.3 -17.5 -1.4 -2.6 -2 -4.2 -7.7 -19.6 -2.2 -6.3 -5 -14.9 -6.1 -19.3 -1.1 -4.3 -3.3 -10.7 -4.9 -14.1 -4.4 -9.8 -5.1 -11.7 -5.1 -14.4 0 -1.4 -1.5 -5.8 -3.4 -9.7 -4.9 -10.2 -6.6 -14.7 -6.6 -16.9 0 -1.2 -0.4 -1.7 -1.2 -1.2 -0.8 0.5 -0.9 0 -0.5 -1.5 0.3 -1.3 -0.7 -5.9 -2.4 -10.9 -1.7 -4.8 -4.1 -12 -5.5 -15.9 -1.3 -4 -3.8 -9.6 -5.5 -12.5 -5.8 -9.7 -10.1 -20.2 -11.5 -27.7 -0.7 -4.1 -2.7 -10.1 -4.4 -13.3 -1.6 -3.2 -3 -6.9 -3 -8.2 0 -6.2 3.8 -9.9 7.9 -7.6 2.1 1.1 7.5 11.4 8.6 16.5 0.4 1.7 2.2 6.4 4 10.5 5.4 12 9.9 24.2 16.5 44.5 3.4 10.5 6.9 20.8 7.7 23 4.4 11.7 8.8 23.8 11 30.5 1.3 4.1 3.4 9.8 4.5 12.5 1.2 2.8 4.2 11.1 6.8 18.5 5.3 15.3 7.6 20.3 9.3 19.7 2.7 -0.9 16.7 -32.2 16.7 -37.5 0 -1.9 -2.1 -8.8 -3.9 -12.7 -0.5 -1.1 -1.5 -3.8 -2.2 -6 -0.6 -2.2 -2.2 -6 -3.4 -8.5 -1.3 -2.5 -2.7 -6.3 -3.3 -8.5 -0.8 -3.3 -5.8 -18.2 -7.9 -23.5 -0.3 -0.8 -1.6 -5.5 -2.9 -10.3 -1.3 -4.8 -4.6 -15.4 -7.4 -23.4 -2.9 -8 -5.5 -16.7 -5.9 -19.2 -0.5 -2.5 -1.8 -7 -3 -9.9 -4.6 -11.5 -1.5 -18 7.6 -15.6 1.4 0.4 2.6 1.9 3.4 4.3 0.6 2 1.5 4.1 1.9 4.6 0.4 0.6 1.3 3.3 1.8 6 0.6 2.8 2.5 9.1 4.2 14 5.6 16.6 10.3 32 10.7 35 0.4 2.7 4.6 16.6 10.8 36.2 1.3 4 4.4 10.4 7 14.2 3.7 5.5 4.7 8 5.2 12.5 0.5 5.1 0.4 5.6 -1.4 5.6 -1.7 0 -2.1 -0.8 -2.5 -4.4 -0.4 -3 -1.7 -6.1 -4 -9.3 -2 -2.6 -4.1 -5.8 -4.7 -7.1 -1.8 -3.4 -11.9 -35.4 -13.4 -42.5 -1.4 -6.3 -5.9 -20.9 -12.2 -39.7 -1.9 -5.8 -3.5 -11.2 -3.5 -12 0 -2.1 -4.3 -12.4 -5.5 -13.2 -0.5 -0.4 -1.7 -0.1 -2.5 0.8 -1.3 1.3 -1.3 2 0.4 6.2 1 2.6 2.4 7.4 3.2 10.7 0.7 3.3 3.8 13.3 6.9 22.3 3 8.9 6.2 19 7 22.5 0.8 3.4 3.3 11.4 5.6 17.7 2.2 6.3 4.5 13.3 5 15.5 0.6 2.2 1.9 5.5 2.9 7.2 1.1 1.8 2.6 5.4 3.4 8 0.8 2.7 2.6 7.9 4.1 11.6 2.9 7.8 3.2 14.1 0.9 19.5 -0.9 2 -2.7 6.9 -4.1 10.7 -1.4 3.9 -3 7.6 -3.7 8.4 -0.6 0.8 -2.4 4.1 -4.1 7.5 -2.9 5.9 -3.1 6.1 -7.2 6.4 -5.4 0.4 -6.1 -0.7 -11.9 -18 -2.5 -7.3 -5.6 -15.8 -6.8 -18.8 -1.3 -3 -3.9 -10.2 -5.9 -16 -3.2 -9.6 -7 -20 -11 -30.5 -0.9 -2.2 -3.7 -10.7 -6.3 -19 -5.2 -16.5 -13 -37.9 -17.1 -46.5 -1.4 -3 -3.6 -8.9 -5 -13 -3 -9.2 -6.1 -14.6 -7.6 -13.1 -0.7 0.7 0 3.2 2.2 8.1 1.8 3.8 3.7 9.9 4.2 13.4 0.4 3.5 2 8.8 3.4 11.7 3.9 8.1 8.7 17.2 9.8 18.7 1.4 1.8 8.2 21.4 11.3 32.7 2.8 10.1 6.1 19.3 7.9 21.5 1.8 2.3 4.5 9.8 4.5 12.5 0 1.4 1.8 6.4 3.9 11.2 2.2 4.9 4.9 12.6 6.1 17.3 2.1 8.3 10.8 32.8 13.6 38.3 0.8 1.5 3 8.9 4.9 16.5 1.9 7.5 4.7 17.5 6.1 22.2 1.4 4.7 3.5 11.2 4.5 14.5 1 3.3 3 12.5 4.4 20.5 2.7 14.9 4.3 22 5 22 2.3 0 12.3 -15.8 10.9 -17.3 -1.3 -1.3 -4.7 -12.3 -6.9 -22.2 -1.3 -6 -3.3 -15.2 -4.4 -20.4 -1.2 -5.1 -2.5 -9.9 -3 -10.5 -0.4 -0.6 -2.5 -5.3 -4.5 -10.3 -4.2 -10.9 -4.6 -17.4 -1.6 -26 1.1 -3.2 2 -6.4 2 -7.1 0 -0.8 1.6 -4.8 3.6 -8.8 3.5 -7.3 3.6 -7.4 7.5 -7.4 4.4 0 5.2 1 6.7 8.5 0.5 2.8 1.9 7.3 3 10 2.9 6.9 6.9 19.5 9.2 28.3 1 4 2.3 7.9 2.8 8.5 0.5 0.7 1.2 2.1 1.5 3.2 5.1 18.2 9.3 31.4 16.3 51 1.9 5.5 4.4 12.9 5.4 16.5 1 3.6 3.7 11.1 5.9 16.7 2.3 5.7 4.1 10.7 4.1 11.1 0 0.5 0.9 2.1 2 3.4 1.2 1.6 2.5 5.8 3.4 11.2 1 6.4 1.9 9.3 3.6 11.1 1.3 1.4 2.7 2.5 3.1 2.5 1.8 0 4.1 -7 3.5 -10.5 -0.4 -1.9 -1.1 -8 -1.6 -13.5 -0.6 -7 -1.4 -10.9 -2.7 -12.8 -3.2 -4.7 -6.3 -11.5 -8.4 -18.2 -1.2 -3.6 -3.7 -9.5 -5.7 -13.2 -3.6 -6.7 -3.8 -6.8 -7.8 -6.8 -4.1 0 -4.2 -0.1 -5.3 -4.4 -0.6 -2.5 -1.1 -6.1 -1.1 -8 0 -3.2 0.3 -3.6 2.5 -3.6 3 0 3 0.3 0.5 -5.4 -1.8 -4.2 -2.2 -4.6 -5.4 -4.6 -4.7 0 -6.6 -2.9 -6.6 -9.7 0 -4.7 0.2 -5.3 2.1 -5.3 1.3 0 1.9 -0.5 1.6 -1.2 -0.3 -0.7 -1.7 -4.2 -3.2 -7.8 -1.5 -3.6 -3.1 -6.9 -3.6 -7.5 -0.5 -0.5 -0.9 -1.8 -0.9 -2.8 0 -1.1 -0.8 -3.4 -1.9 -5.1 -1 -1.7 -2.4 -4.9 -3.1 -7.1 -1.4 -4.4 -7.6 -19.9 -9.1 -22.4 -0.5 -0.9 -2.4 -6.4 -4.4 -12.4 -3.8 -11.6 -4.7 -20.7 -2 -20.7 0.9 0 1.6 1.4 2 3.8 0.9 5.9 6.6 22.9 10.5 31.7 2 4.4 4.5 10.5 5.5 13.5 0.9 3 2.5 7.1 3.5 9 1 1.9 3.6 8 5.8 13.5 2.2 5.5 4.9 12.3 6 15 1.1 2.8 4.3 10.6 7.1 17.5 2.8 6.9 5.8 14.9 6.6 17.8 0.9 3 3.1 8.1 5 11.5 1.8 3.4 4 8.6 4.9 11.6 0.9 3 3.6 9.2 6.1 13.7 4.1 7.6 4.6 9.3 5.5 18.6 0.5 5.7 1.2 13 1.6 16.3 0.5 5.1 0.2 6.6 -1.8 10.4 -1.3 2.5 -2.8 4.5 -3.3 4.6 -0.6 0.1 -2.7 -0.7 -4.8 -1.8z m-18.7 -82.2 c0 -2 -3.2 -8.5 -4.2 -8.5 -0.4 0 -0.3 1 0.2 2.3 0.5 1.2 1.1 3.4 1.4 5 0.7 2.8 2.6 3.8 2.6 1.2z m-10.6 -29.2 c-0.7 -3.1 -2.1 -5 -3 -4.1 -0.6 0.6 2.3 6.8 3.1 6.8 0.3 0 0.2 -1.2 -0.1 -2.7z"/>
  <path d="M518.2 426.9 c-3.9 -4.1 -8.3 -13.1 -9 -18.1 -0.2 -2.1 -1.2 -4.4 -2.2 -5.1 -2.5 -1.8 -4 -5.1 -4 -9.1 0 -3.1 0.9 -4.5 6.3 -9.9 9.2 -9.3 9.5 -10.1 6.7 -18.9 -6.2 -20.3 -6.4 -20.8 -15.5 -40.3 -0.8 -1.6 -2.8 -6.6 -4.4 -11 -1.5 -4.4 -4.7 -12.9 -7 -19 -2.4 -6 -4.5 -11.9 -4.8 -13 -0.3 -1.1 -1.1 -3.4 -1.9 -5.2 -0.8 -1.7 -1.4 -3.5 -1.4 -4.1 0 -0.5 -0.8 -2 -1.8 -3.3 -1.8 -2.4 -10.8 -22.7 -15.6 -35.4 -1.5 -3.8 -3.3 -8.3 -4.1 -10 -1.5 -3.4 -3.9 -9.5 -6.5 -17 -1 -2.7 -2.5 -6.3 -3.4 -8 -0.9 -1.6 -1.6 -3.7 -1.6 -4.6 0 -1 -1.3 -4.3 -3 -7.4 -1.6 -3.1 -3 -6.4 -3 -7.4 0 -2.4 -2 -4.9 -2.7 -3.3 -0.2 0.6 -1 1.2 -1.7 1.2 -2 0 -5.3 4.1 -7.6 9.5 -1.8 4.1 -2.1 6.4 -1.8 12.8 0.5 7.7 0.5 7.7 -3.9 9.9 -5.3 2.6 -7.1 1.9 -9.2 -3.7 -1.4 -3.5 -1.3 -4.3 0.7 -10.1 2.4 -6.9 2.7 -10.9 1.2 -14.9 -1.4 -3.8 0.9 -8.4 6.5 -13.1 2.5 -2.1 5.6 -5.5 6.8 -7.4 1.1 -1.9 2.4 -3.7 2.7 -4 0.3 -0.3 1.4 -1.8 2.5 -3.5 1 -1.6 5.5 -7.2 9.9 -12.3 8.7 -9.9 13.2 -12.5 17.7 -10.1 1.8 0.9 2.1 1.8 1.6 5.5 -0.3 2.7 -1.5 5.8 -3.3 8.1 -2 2.6 -2.4 3.8 -1.5 4.1 1.9 0.6 5.1 4 5.1 5.3 0 0.6 -1.4 2.3 -3.1 3.8 -11.3 9.6 -10.7 7.4 -5.7 20.7 2.5 6.5 6.2 17.5 8.2 24.4 2.1 6.9 4.8 15.2 6.1 18.5 3.6 9.3 9.3 23.3 12.5 30.5 1.6 3.6 4 9.9 5.4 14 1.3 4.1 4.1 11.6 6.1 16.5 4.1 10.1 5.1 12.6 12.5 31 2.8 7.1 6 14.5 7 16.5 1.1 1.9 3.9 7.8 6.3 13 2.4 5.2 5.6 11.5 7.1 13.9 2.8 4.4 2.8 4.4 7.8 -0.5 6.1 -6.1 14.5 -18.6 15.9 -23.6 0.5 -2.1 1.4 -3.8 2 -3.8 1.7 0 4.2 7.1 3 8.3 -0.6 0.6 -1.1 2.5 -1.1 4.3 0 1.7 -0.7 3.7 -1.6 4.5 -1.2 1 -1.4 2.5 -0.9 7.5 0.7 6.2 0.7 6.2 -6.5 14 -8 8.6 -7.9 8.1 -5.1 21.7 1.5 7.3 0.4 11.2 -4.4 15 -3.5 2.8 -3.7 2.8 -6.1 1.2 -1.4 -0.9 -3.2 -3.2 -4 -5.1 -0.8 -1.9 -2.1 -3.4 -2.9 -3.4 -4.5 0 -4.6 13.3 -0.1 22.2 1.5 3 2.6 6.6 2.4 7.9 -0.5 3.7 -4 3.6 -7.6 -0.2z m-2 -18.7 c-0.3 -5.6 0 -8.7 1.1 -11.5 1.5 -3.5 1.8 -3.7 6.2 -3.7 4 0 4.7 0.3 5.6 2.7 1.7 4.4 2.8 5.4 5.1 4.2 3.1 -1.7 3.8 -5.1 2.3 -11.5 -1.9 -8 -1.9 -14.4 0.2 -17.4 2.5 -3.8 7.6 -9 8.8 -9 1.8 0 3.5 -5.3 2.8 -9.3 -0.6 -3.8 -0.6 -3.8 -2.2 -1.4 -0.9 1.3 -3.8 4.7 -6.5 7.5 -4.4 4.7 -5.4 5.2 -9.2 5.2 -3.7 0 -4.5 -0.4 -6.2 -3.2 -5.4 -9 -15.5 -30.8 -22.3 -47.8 -8.3 -21 -9.1 -23.1 -9.6 -22.6 -0.2 0.2 1 3.9 2.7 8.3 1.8 4.3 4.2 10.7 5.5 14.3 1.2 3.6 4.8 12.1 7.9 18.9 5.6 12.3 12.5 33.2 13.4 40.3 0.5 4.9 -2.9 10.8 -6.4 10.8 -1.8 0 -2.4 0.5 -2.4 2.1 0 1.2 -1.3 3.7 -3 5.6 -3.7 4.1 -3.7 5.7 -0.5 8.5 1.4 1.2 2.5 3 2.5 3.9 0 1.7 3.8 12.9 4.4 12.9 0.2 0 0.1 -3.5 -0.2 -7.8z m-33.6 -145.3 c-1.3 -3.5 -3.2 -8.2 -4.3 -10.4 -1.1 -2.2 -2.4 -5.1 -2.8 -6.5 -0.4 -1.4 -2.9 -7.4 -5.5 -13.5 -2.6 -6 -5.1 -12.6 -5.5 -14.5 -1.1 -5.1 -12.3 -38.8 -14 -42.1 -0.8 -1.5 -1.5 -5.2 -1.5 -8.2 0 -4.5 0.4 -5.7 2.8 -7.9 1.5 -1.4 3.7 -3.1 5 -3.7 2.7 -1.4 2.8 -2.7 0.2 -3.4 -1.6 -0.4 -2 -1.4 -2 -4.5 0 -2.4 0.6 -4.5 1.6 -5.3 1.4 -1.2 4.4 -6.1 4.4 -7.4 0 -0.3 -0.8 -0.5 -1.8 -0.5 -1 0 -5.6 4.4 -10.7 10.4 -11.6 13.4 -12 13.9 -12.8 15.9 -0.3 0.9 -1.1 1.7 -1.6 1.7 -0.5 0 -1.2 1.1 -1.5 2.4 -0.3 1.3 -2.3 3.6 -4.3 5.2 -6.7 5.1 -7.1 6 -6.6 14.4 0.4 6 0.1 8.5 -1.5 12.5 -2.4 6.1 -1.5 10.3 1.8 8.5 1.7 -0.9 2 -2.1 2 -8.8 0 -6.4 0.5 -8.7 2.9 -13.9 1.7 -3.6 4.1 -6.9 5.8 -8 1.5 -0.9 3.1 -2.1 3.4 -2.6 0.3 -0.5 2.4 -0.7 4.5 -0.5 3.6 0.3 4 0.6 4.9 4.3 0.6 2.2 1.8 5.1 2.7 6.5 0.9 1.4 2.2 4.5 2.8 7 0.7 2.5 2.1 6.3 3.1 8.5 1 2.2 3.2 7.8 5 12.5 1.7 4.7 3.5 9.3 4 10.2 0.4 0.9 2.4 5.9 4.4 11 7 18.3 16.2 38.3 17.2 37.4 0.2 -0.1 -0.8 -3.1 -2.1 -6.7z"/>
  <path d="M593.9 419 c-2 -1.2 -3.3 -4.5 -5.5 -14 -0.9 -4.1 -2.9 -9.5 -4.5 -12 -3.4 -5.5 -10.2 -25.6 -12.4 -36.5 -0.8 -4.4 -1.9 -8.9 -2.4 -10 -0.5 -1.1 -2.8 -7.8 -5 -15 -2.3 -7.1 -4.8 -15.2 -5.7 -18 -0.9 -2.7 -2.2 -5.7 -2.9 -6.5 -1.3 -1.5 -6.4 -14.3 -11.2 -28.4 -1.2 -3.8 -3.6 -9.2 -5.3 -12.1 -1.6 -2.9 -3 -5.9 -3 -6.7 0 -0.9 -0.9 -2.7 -2 -4.1 -1.2 -1.4 -3.2 -6.2 -4.6 -10.6 -1.4 -4.4 -3 -8 -3.7 -7.8 -1 0.2 -5.2 -9.7 -6.4 -15.3 -0.3 -1.4 -1.4 -3.4 -2.4 -4.5 -1 -1.1 -3.2 -5.6 -4.9 -10 -1.7 -4.4 -3.5 -8.7 -4.1 -9.5 -0.5 -0.8 -1.4 -2.6 -2 -4 -0.6 -1.4 -1.9 -3.4 -2.9 -4.5 -1 -1.1 -3.5 -5.6 -5.5 -10 -2 -4.4 -4.8 -8.9 -6.2 -10.1 -2.1 -1.6 -2.8 -3.3 -3.3 -8 -0.8 -6 -3 -10.5 -8.5 -17.1 -3 -3.6 -3 -3.7 -3 -15.7 0 -12.1 0 -12.1 2.5 -12.1 2 0 3 1 5 5 1.4 2.8 3.9 6.9 5.5 9 1.6 2.2 3.1 4.2 3.2 4.4 0.2 0.3 2 -0.3 4 -1.3 3.7 -1.8 3.7 -1.8 6 0.9 1.3 1.5 2.3 3.9 2.3 5.6 0 2.3 1.3 4.5 5.7 9 5.6 5.9 5.6 5.9 2.1 5.9 -4.6 0 -9.6 -5.2 -11.3 -11.7 -1.2 -4.8 -1.2 -4.8 -5.9 -4.5 -4.4 0.3 -7.6 -1.2 -7.6 -3.5 0 -0.4 -0.9 -1.4 -2 -2.1 -1.1 -0.7 -2 -2.3 -2 -3.7 0 -1.5 -0.6 -2.5 -1.4 -2.5 -0.8 0 -1.7 -0.6 -1.9 -1.2 -0.3 -0.7 -0.6 1.4 -0.6 4.8 -0.1 5.5 0.2 6.5 3.4 10.5 1.9 2.4 3.5 4.8 3.5 5.2 0 0.4 0.9 2 1.9 3.5 1 1.5 2.2 5.2 2.5 8.2 0.4 4.4 1.1 6 3.4 8 2.3 2 9.2 14.5 9.2 16.7 0 0.3 1.1 1.8 2.5 3.5 1.4 1.6 2.5 3.5 2.5 4.2 0 0.7 0.9 2.1 2 3.1 1.1 1 2 2.8 2 4.1 0 1.3 0.4 2.5 0.9 2.8 0.4 0.3 1.4 2.5 2 4.9 1.4 5 6 11.4 6.1 8.5 0 -2.2 -3.2 -9.8 -4.2 -9.8 -1.2 0 -6.8 -19.7 -6.8 -23.9 0 -4.1 0 -4.1 4.5 -4.1 4.2 0 5 0.4 10.5 5.9 3.3 3.2 6 6.6 6 7.5 0 0.9 2.9 4.6 6.5 8.2 3.6 3.7 6.5 7 6.5 7.5 0 0.5 0.6 0.9 1.3 0.9 0.6 0.1 3.3 2.9 6 6.3 10.5 13.7 11.8 15.3 15.2 18.8 1.9 1.9 3.5 3.8 3.5 4.2 0 0.3 1 1.7 2.3 2.9 1.2 1.3 3.3 3.9 4.7 5.8 4.2 5.8 8.8 10.5 9.5 9.8 0.4 -0.3 -0.4 -1.6 -1.8 -2.8 -1.4 -1.2 -3.1 -3.5 -3.7 -5 -0.7 -1.6 -1.8 -3.1 -2.5 -3.4 -0.7 -0.2 -5.4 -5.8 -10.3 -12.3 -4.9 -6.5 -11.2 -14.2 -14 -17.1 -2.9 -3 -5.2 -6 -5.2 -6.7 0 -0.8 -1.8 -3.5 -4.1 -6.1 -2.3 -2.6 -5.3 -6.6 -6.8 -8.8 -1.4 -2.3 -4.1 -6 -5.8 -8.4 -1.8 -2.4 -3.3 -4.9 -3.3 -5.7 0 -0.7 -0.6 -1.5 -1.4 -1.8 -0.7 -0.3 -3.4 -3.3 -6 -6.6 -3.3 -4.4 -4.6 -7 -4.6 -9.4 0.1 -3.2 0.1 -3.2 3.8 0.9 4.2 4.6 12.1 14.8 17.2 22.4 1.9 2.8 5.4 7.5 7.7 10.3 2.4 2.9 5.4 7.3 6.8 10 1.4 2.6 3.5 5.3 4.6 6 1.1 0.6 6.7 7.3 12.4 14.7 5.6 7.5 11 14.2 12 15 1 0.8 2.8 3.2 4.2 5.2 1.3 2.1 3 4.6 3.7 5.6 22.5 27.7 24.8 30.2 25.4 28.4 0.2 -0.8 -1 -5 -2.6 -9.5 -1.7 -4.5 -4.5 -12 -6.2 -16.7 -1.8 -4.7 -4 -10.3 -5 -12.5 -0.9 -2.2 -2.7 -6.6 -3.9 -9.8 -1.1 -3.2 -2.8 -6.8 -3.6 -8 -0.8 -1.3 -1.4 -3.6 -1.4 -5.2 0 -4.9 -1.3 -9.8 -3.2 -12.4 -1.1 -1.3 -1.9 -3.1 -1.9 -4.1 0 -0.9 -1.2 -3.5 -2.8 -5.6 -3.5 -5 -5.2 -8.9 -5.2 -12 0 -1.4 -1.1 -3.6 -2.4 -4.9 -2.3 -2.3 -3.5 -5.3 -4.1 -11 -0.2 -1.6 -1.3 -5.7 -2.4 -8.9 -1.2 -3.3 -2.1 -7.2 -2.1 -8.8 0 -1.6 -0.6 -3.1 -1.5 -3.4 -1.6 -0.7 -2.1 -3.4 -0.6 -3.4 1.3 0 -0.6 -6.3 -2.3 -7.5 -0.7 -0.6 -1.7 -2.6 -2.1 -4.5 -0.3 -1.9 -1.1 -4.8 -1.5 -6.5 -0.5 -1.6 -1.6 -6.8 -2.5 -11.5 -2.4 -12.3 -3.9 -16.5 -12.6 -34.7 -4.4 -8.9 -7.9 -17 -7.9 -17.9 0 -5.3 6.2 -8 10.6 -4.5 1.5 1.2 3.7 2.1 5 2.1 3.5 0 5 3.2 8.5 17.1 3.3 13.1 8.9 32 11.9 40.4 2.2 5.9 9.4 24.9 12.2 32 1.1 2.8 3.2 7.5 4.6 10.5 7.8 16.8 12.2 27.4 12.2 29.9 0 0.7 1.5 3.8 3.3 6.9 1.8 3.1 4.6 8.6 6.4 12.2 11.2 23.3 14.2 30.1 15.8 34.7 0.9 2.9 2.1 5.5 2.6 5.8 0.5 0.4 0.9 1.3 0.9 2 0 0.8 1.3 4.4 3 7.9 1.6 3.6 3.3 7.8 3.6 9.3 0.4 1.5 2 5.5 3.5 8.8 1.5 3.3 3.8 9.4 5.3 13.5 1.4 4.1 4.6 11.5 7.1 16.4 4 7.8 4.4 9.1 3.2 10.4 -2 2 -5.3 0.1 -6 -3.5 -0.3 -1.5 -3.2 -8.2 -6.4 -14.8 -7 -14.7 -8.2 -12.9 -2.3 3.6 2.3 6.3 5.3 14.7 6.6 18.8 2.6 7.4 4.6 11 14.9 25.1 5.5 7.7 6.5 10.9 4.1 12.9 -0.8 0.7 -1.7 2.3 -2 3.6 -1.5 5.9 -7.7 3.6 -16.2 -6 -3.2 -3.6 -8 -7.9 -10.5 -9.5 -3.9 -2.4 -5.1 -3.8 -6.8 -8.5 -1.2 -3 -2.7 -6.6 -3.5 -7.8 -0.8 -1.2 -1.7 -3.3 -2.1 -4.7 -1 -3.4 -11.9 -22.5 -15.8 -27.7 -1.8 -2.3 -5.9 -7.7 -9.2 -12 -3.3 -4.3 -6.8 -9.3 -7.8 -11.1 -2.4 -4.5 -8.8 -12.8 -13 -17.2 -1.9 -1.9 -6.2 -7.2 -9.6 -11.7 -3.3 -4.5 -6.9 -8.8 -7.9 -9.5 -0.9 -0.7 -3.3 -3.4 -5.2 -6 -1.9 -2.6 -6.1 -7.8 -9.2 -11.7 -3.2 -3.8 -5.8 -7.4 -5.8 -7.9 0 -0.5 -1.7 -2.1 -3.9 -3.5 -4.4 -2.9 -10 -9.5 -12.5 -14.7 -1.9 -3.7 -9.8 -11 -12.1 -11 -1 0 -1.1 0.7 -0.5 2.8 0.5 1.5 2 6.2 3.3 10.4 1.4 4.2 3.4 8.6 4.5 9.8 1.1 1.2 2.2 4.3 2.6 7 0.4 2.7 1.1 5.2 1.6 5.5 0.6 0.3 1 1.4 1 2.3 0 2 3.4 11 6.6 17.2 1.2 2.5 2.5 6.1 2.9 8.2 0.4 2 1.9 4.8 3.6 6.4 1.6 1.5 2.9 3.5 2.9 4.4 0 0.9 1.2 3 2.7 4.7 1.5 1.7 3.4 5.7 4.4 8.9 1.8 6.5 4.6 13.3 9.5 23.9 1.8 3.9 3.9 9 4.7 11.5 0.9 2.5 2.7 7 4.1 10.1 1.4 3.2 3.2 8.3 4.2 11.5 0.9 3.3 3 8.8 4.7 12.4 4 8.6 7.5 16.6 9.4 21.5 3.4 8.9 9.6 26.5 12.2 35 1.6 5 3.5 10.5 4.2 12.3 1.2 2.9 1.2 3.7 -0.4 6.3 -0.9 1.7 -1.7 3.7 -1.7 4.4 0 2.8 -5 4.3 -8.1 2.5z m4.1 -5.8 c0 -1 0.5 -2.3 1.1 -2.9 2.1 -2.1 -12.2 -44 -22.6 -65.8 -2.3 -4.9 -5 -11.7 -5.9 -15 -1 -3.3 -2.8 -8.5 -4.1 -11.5 -1.3 -3 -4.1 -9.8 -6.1 -15 -1.9 -5.2 -4.1 -10.2 -4.8 -11 -0.7 -0.8 -1.8 -3.4 -2.4 -5.6 -0.7 -2.3 -2.3 -6.6 -3.7 -9.5 -3.4 -7.4 -2.1 -1.5 2 8.6 1.8 4.4 3.8 9.7 4.5 11.9 0.7 2.1 2.3 5.4 3.5 7.2 1.3 1.9 2.9 5.7 3.5 8.6 0.7 2.9 3.4 11.6 6 19.3 2.6 7.7 5.3 16.9 5.9 20.4 2 10.1 9.8 32.8 12.6 36.5 1.6 2.2 3.2 6.5 4.6 12.6 2.1 9.7 3.3 13 4.9 13 0.6 0 1 -0.8 1 -1.8z m65 -56.2 c0 -1 0.8 -2.4 1.8 -3 1.6 -0.9 1.6 -1.1 0 -2 -0.9 -0.6 -3 -3.1 -4.7 -5.8 -4.9 -7.6 -5.5 -8.3 -7.7 -10.9 -2.4 -2.6 -3.7 -5.8 -11.4 -27.3 -2.9 -8 -5.5 -17.1 -5.7 -20.2 -0.6 -5.7 -0.5 -5.8 2.1 -5.8 1.4 0 2.6 -0.2 2.6 -0.4 0 -0.3 -1.3 -3.8 -2.9 -7.8 -3 -7.3 -3 -7.3 -7 -7.6 -4 -0.3 -4.1 -0.4 -4.1 -4.3 0 -3.2 0.3 -3.9 2 -3.9 1.7 0 1.9 -0.4 1.4 -2.7 -0.4 -1.6 -1.3 -4 -2 -5.4 -0.7 -1.5 -2.4 -5.5 -3.7 -9 -1.3 -3.5 -4.5 -10.4 -6.9 -15.4 -2.5 -4.9 -4.9 -10.1 -5.3 -11.5 -0.4 -1.3 -3.2 -6.8 -6.1 -12.2 -3 -5.4 -5.4 -10.3 -5.4 -10.9 0 -0.6 -0.9 -2.9 -1.9 -5.2 -1.1 -2.4 -2.3 -5.5 -2.6 -7 -0.4 -1.6 -2.5 -6.3 -4.7 -10.5 -4 -7.8 -4.2 -7.4 -1.8 3.3 0.7 2.8 1.4 7.4 1.7 10.2 0.4 4.7 0.3 5.4 -1.7 6.1 -2.1 0.8 -2.1 0.8 -0.1 3.4 1.2 1.4 2.1 3.5 2.1 4.6 0 1.1 1.1 3.3 2.4 4.9 1.7 2.1 2.6 4.9 3.4 11.2 0.5 4.6 1.4 8.6 2 9 0.8 0.5 6.3 14.1 17.8 43.9 3.2 8.4 4.2 15.1 2.3 16.3 -2.4 1.5 -7.9 1.1 -7.9 -0.6 0 -0.8 -0.7 -1.5 -1.5 -1.5 -1.2 0 -6.3 -5.6 -18.9 -21 -4.3 -5.3 -1.9 -1.3 3.6 5.8 2.6 3.5 4.8 6.7 4.8 7.1 0 0.5 3.2 5 7 10 3.9 5.1 7 9.4 7 9.6 0 0.3 0.9 1.4 2 2.5 1.1 1.1 2 2.9 2 4 0 1.1 0.6 2 1.4 2 0.8 0 1.7 0.8 2 1.8 0.3 0.9 2.6 4.8 5.1 8.6 2.4 3.8 4.7 8.3 5.1 10 0.3 1.7 1.7 4.9 2.9 7.1 1.3 2.2 2.8 5.7 3.5 7.8 0.9 3 2.4 4.6 6.5 7.2 5.9 3.8 11.5 10 11.5 12.7 0 1.1 0.7 1.8 1.9 1.8 1 0 2.4 0.7 3.1 1.5 1.7 2.1 3 1.9 3 -0.5z m-116.4 -89.2 c-0.3 -1.3 -1.7 -3.6 -3.1 -5.2 -1.4 -1.6 -2.5 -3.4 -2.5 -3.9 0 -0.6 -0.2 -0.8 -0.5 -0.5 -0.3 0.3 0.9 3.3 2.7 6.6 3.4 6.1 4.5 7.1 3.4 3z m39.8 -89.1 c-0.4 -2.6 -1 -4.7 -1.4 -4.7 -0.5 0 -1.1 -2.7 -1.5 -5.9 -0.5 -4.7 -1.3 -6.5 -3.6 -8.7 -4 -3.8 -3.9 -2.7 1.8 13.1 4.5 12.6 5.8 14.2 4.7 6.2z m-2.7 -25.9 c-2 -4.9 -2.2 -5.1 -2.5 -2.4 -0.2 1.9 0.4 3.6 1.9 5.2 1.2 1.3 2.4 2.4 2.5 2.4 0.2 0 -0.7 -2.4 -1.9 -5.2z m-6.7 -2.8 c0 -2.9 -2.3 -10 -3.3 -10 -0.4 0 -0.5 1 -0.3 2.3 0.3 1.2 0.8 3.9 1.1 6 0.6 3.9 2.5 5.2 2.5 1.7z m0 -14.9 c0 -0.4 -1.4 -4.1 -3.1 -8.2 -1.7 -4.1 -3.8 -9.6 -4.6 -12.4 -0.9 -2.7 -3 -9.7 -4.8 -15.5 -1.8 -5.8 -4.5 -15.7 -6 -22 -3.7 -15 -4.2 -16 -7.7 -16 -1.5 0 -3.7 -0.9 -4.7 -1.9 -1.3 -1.3 -2.2 -1.6 -2.9 -0.9 -0.8 0.8 0 3.2 2.4 7.9 1.9 3.8 3.4 7.5 3.4 8.3 0 0.8 0.3 1.6 0.8 1.8 0.8 0.3 8.7 17 9.6 20.3 0.3 1.2 1.7 7.2 3 13.5 1.3 6.3 2.9 11.6 3.5 11.8 0.6 0.2 1.1 2.4 1.1 4.8 0 2.4 0.4 4.4 0.8 4.4 0.5 0 1.4 1.1 2 2.5 0.9 1.9 1.9 2.5 4.2 2.5 1.6 0 3 -0.4 3 -0.9z"/>
  <path d="M724.3 393.5 c-1.1 -0.8 -4.4 -6 -7.2 -11.5 -3.1 -6.3 -6.8 -11.8 -9.6 -14.6 -2.5 -2.5 -4.5 -5 -4.5 -5.6 0 -0.6 -1.1 -2.6 -2.5 -4.4 -1.4 -1.8 -2.5 -3.8 -2.5 -4.4 0 -0.6 -1.1 -3.3 -2.5 -6 -2.9 -5.7 -5 -11.9 -6 -17.4 -0.3 -2.1 -1.3 -4.9 -2.2 -6.2 -0.8 -1.3 -2.8 -6.6 -4.3 -11.8 -1.6 -5.2 -3.3 -10.3 -3.8 -11.3 -0.5 -1 -1.2 -3.8 -1.6 -6.3 -0.3 -2.5 -1.1 -6.5 -1.6 -9 -0.5 -2.5 -1.9 -9 -3 -14.5 -1.2 -5.5 -2.8 -11.9 -3.7 -14.2 -1.4 -3.8 -1.6 -8 -1.2 -17.8 0.2 -2.7 -0.6 -6.9 -4 -22.5 -0.5 -2.5 -1.2 -7.4 -1.5 -11 -0.3 -3.6 -1 -12.1 -1.6 -18.9 -0.5 -6.9 -1.3 -13.3 -1.6 -14.4 -0.9 -2.7 0.5 -8.7 2 -8.7 0.9 0 1.6 3.7 2.5 13.3 2.4 25.2 4.1 38.2 6.1 47.2 3.1 13.3 3.5 17.3 2 20 -1.1 2 -1 3.3 0.5 7.7 1.9 5.9 3.4 12.1 7.1 31.3 1.4 7.2 2.9 13.9 3.4 15 0.5 1.1 2.1 6 3.5 10.9 1.4 4.9 3.4 10.3 4.4 12 1.1 1.7 2.4 5.7 3 8.9 0.6 3.3 2.4 8.5 4 11.7 1.6 3.2 3.5 7.6 4.2 9.9 0.7 2.2 1.6 4.1 2 4.1 0.5 0 1.5 1.3 2.3 2.9 0.9 1.6 3.4 4.8 5.7 7.2 2.4 2.5 6.1 8.3 8.6 13.6 5 10.5 6.4 12.1 8.4 9.7 1 -1.3 1.5 -5.5 1.6 -15.8 0.1 -7.8 0.6 -15.4 1.1 -17.1 0.8 -2.7 1.3 -3 5.5 -3.3 2.6 -0.2 4.7 -0.7 4.7 -1.3 0 -0.5 -0.4 -0.9 -0.9 -0.9 -0.5 0 -1.7 -2.3 -2.6 -5.1 -2.6 -7.7 -1.6 -25.7 1.9 -36.4 3.3 -9.8 4.9 -13.5 5.8 -13.5 0.5 0 0.8 -0.7 0.8 -1.5 0 -0.8 0.6 -1.5 1.4 -1.5 1.9 0 7.6 -6.9 7.6 -9.2 0 -0.9 0.4 -1.9 0.9 -2.2 0.4 -0.3 1.1 -2.2 1.4 -4.2 0.3 -2 1.2 -4.4 2 -5.3 0.8 -0.9 2.7 -4.1 4.3 -7.1 1.6 -3 3.8 -6.9 5 -8.7 1.2 -1.7 2.4 -5.5 2.7 -8.4 0.7 -5.5 2.7 -8.6 6 -9.1 1.1 -0.2 2.5 -1.2 3.1 -2.3 0.6 -1.1 1.4 -2.2 1.7 -2.5 0.3 -0.3 0.9 -2.5 1.3 -4.9 0.8 -5 -0.7 -7.4 -6.1 -9.6 -2.4 -1 -3.4 -2.3 -4.2 -5.2 -1.9 -7.2 -3.1 -17.8 -3.1 -29.3 0 -17.1 -0.4 -17.8 -9.1 -15.8 -3.6 0.8 -6.5 2.5 -9.8 5.3 -2.7 2.5 -6.8 4.9 -10.1 6 -6.2 2 -12.5 6.3 -19 12.9 -2.4 2.5 -5 4.6 -5.6 4.6 -0.7 0 -2 2.1 -3 4.6 -1.6 4.2 -1.6 4.9 -0.3 7.3 1.6 2.8 3.5 3 13 1.6 3.1 -0.5 4.9 -0.3 5.3 0.4 1.2 1.9 4.9 1.2 7.8 -1.6 1.5 -1.5 2.8 -3.3 2.8 -4.1 0 -0.7 1.5 -3.1 3.3 -5.2 3.2 -4 3.2 -4 11.2 -4 5 0 8.6 0.5 9.3 1.2 0.8 0.8 1.2 5.4 1.2 14 0 12.9 0 12.9 -3.9 16.6 -2.2 2.1 -4.2 5.1 -4.6 6.7 -1.1 5.1 -3.4 9.5 -5 9.5 -0.8 0 -1.5 0.8 -1.5 1.8 0 1 -2.5 6.6 -5.4 12.5 -3 5.8 -5.8 12.3 -6.2 14.4 -0.9 5.3 -3 9 -5.4 9.8 -1.8 0.6 -2 1.5 -2 8.1 0 4.6 -0.9 10.9 -2.4 16.7 -1.3 5 -2.7 11.1 -3.1 13.4 -0.4 2.4 -1.1 4.5 -1.6 4.9 -0.5 0.3 -0.9 2.3 -0.9 4.5 0 2.1 -0.4 3.9 -1 3.9 -0.5 0 -1 0.7 -1 1.5 0 0.8 -0.4 2.3 -0.9 3.3 -0.5 0.9 -1.2 2.5 -1.5 3.5 -0.4 1.2 -1.6 1.7 -4.5 1.7 -5.8 0 -10.2 -4.3 -15 -14.4 -12.7 -26.8 -15.2 -33.7 -20.7 -57.1 -4.8 -20.6 -6.4 -34.8 -7.1 -64.2 -0.5 -22.8 -0.4 -25.3 1 -25.3 2.2 0 2.5 2.8 3.1 28 0.6 23.1 1.8 36.6 4.1 47 6.3 28.1 9.6 39.3 15.9 52.5 1.3 2.8 3.4 7.5 4.6 10.5 3.2 7.9 6.7 13.6 10.2 16.5 3.1 2.7 4.8 3.2 4.8 1.5 0 -0.6 1 -3 2.1 -5.3 1.2 -2.3 2.3 -5.5 2.4 -7.2 0.2 -1.6 0.8 -4.3 1.3 -6 0.6 -1.6 1.8 -6.6 2.7 -11 0.9 -4.4 2.1 -9 2.6 -10.3 0.5 -1.3 0.9 -5.7 0.9 -9.9 0 -7.4 0.1 -7.8 3.3 -10.7 2.6 -2.4 3.6 -4.5 4.6 -9.1 0.7 -3.3 2.6 -8.2 4.2 -11 1.6 -2.7 3.6 -6.6 4.4 -8.5 0.9 -1.9 1.9 -4 2.3 -4.6 0.4 -0.6 1.8 -2.9 3.3 -5 1.4 -2.1 3.1 -5.9 3.8 -8.4 0.8 -2.9 2.8 -5.9 5.3 -8.3 3.5 -3.4 3.9 -4.1 3.2 -7 -0.4 -1.8 -0.8 -6.1 -0.8 -9.7 -0.1 -6.5 -0.1 -6.5 -5 -7.4 -4.8 -0.9 -4.9 -0.8 -8.2 3 -1.8 2.2 -3.3 4.6 -3.4 5.5 0 1.9 -5.6 7.1 -9.4 8.7 -2.4 1.1 -3.3 1 -6.2 -0.8 -3.3 -1.9 -3.7 -1.9 -7.4 -0.4 -3.4 1.4 -4.5 1.4 -8.2 0.3 -4.8 -1.6 -6.8 -4.4 -6.8 -10 0 -5.7 1.9 -8.8 10 -16.5 9 -8.5 14 -11.8 20 -13.5 2.7 -0.8 6.6 -3.2 9.8 -6 5.3 -4.7 6.4 -5.1 17.2 -6.5 4.1 -0.5 4.7 -0.4 6.7 2.4 2 2.7 2.2 4.5 2.7 20.3 0.6 22.7 1.9 27.5 7.7 29.3 0.9 0.2 2.9 2.1 4.4 4 2.5 3.3 2.7 3.9 1.7 7.9 -0.6 2.3 -1.3 5.4 -1.6 6.8 -0.8 3.6 -4.4 7.9 -6.6 7.9 -2.7 0 -5 3.8 -5 8.1 0 3.8 -0.7 5.6 -5.3 12.6 -1.5 2.4 -2.7 4.7 -2.7 5.1 0 0.5 -1.3 2.8 -3 5 -1.6 2.3 -3 5 -3 5.9 -0.1 5.9 -6.2 15.8 -10.4 16.9 -1.4 0.3 -2.6 1.5 -2.9 2.7 -0.5 2.2 -2.3 7.4 -3.8 11.2 -5 12.5 -5.2 35.3 -0.3 37.2 0.9 0.3 1.4 2.1 1.4 5.3 0 4.1 -0.3 5 -2.1 5.5 -1.2 0.4 -3.2 0.1 -4.6 -0.6 -3.2 -1.7 -4.5 0.1 -4 5.7 0.2 2.3 0 4.9 -0.5 5.8 -0.6 1.1 -0.6 4.1 0 8 1.9 12 -4 21.6 -10.5 17.1z"/>
  <path d="M859.5 300 c-6.7 -2.6 -8.7 -10.1 -3.9 -14.5 1.4 -1.3 3.9 -3 5.5 -3.7 1.6 -0.7 3.1 -1.9 3.4 -2.6 0.6 -1.7 -9.4 -0.5 -11.6 1.4 -1.9 1.7 -4.3 1.8 -7 0.4 -2.3 -1.3 -2.5 -4.3 -0.3 -6.1 1.2 -1 1.5 -2.6 1.2 -6.5 -0.4 -4.9 -1.6 -8 -9.2 -23.9 -6 -12.5 -7.6 -16.1 -7.6 -17.1 -0.1 -0.5 -0.9 -2.7 -2 -4.9 -1.1 -2.2 -1.9 -4.4 -2 -4.9 0 -0.4 -1.3 -2.5 -3 -4.6 -1.6 -2.1 -3 -4.3 -3 -4.9 0 -0.6 -0.7 -1.1 -1.5 -1.1 -0.8 0 -1.5 -0.9 -1.5 -1.9 0 -1 -1.3 -4.5 -3 -7.6 -1.6 -3.1 -3 -6.5 -3 -7.4 0 -2.4 -4.1 -6.1 -6.7 -6.1 -3.7 0 -7.3 -1.9 -8.2 -4.2 -0.5 -1.3 -1.3 -7.5 -2 -13.8 -0.8 -8.8 -1.5 -11.9 -2.8 -13 -1 -0.8 -1.9 -2.6 -2.1 -3.9 -0.1 -1.4 -1.5 -4.5 -3 -7 -1.5 -2.5 -3.4 -6.4 -4.1 -8.7 -0.7 -2.3 -2.5 -5.4 -4 -7 -1.5 -1.6 -2.6 -3.5 -2.3 -4.2 0.2 -0.7 -0.3 -2.1 -1.1 -3 -0.8 -0.9 -2.2 -3.5 -3.2 -5.7 -2.2 -5.4 -5.9 -9 -12.1 -12.1 -8.4 -4.1 -9.7 -6 -9.6 -14.4 0.1 -4.7 0.6 -8 1.6 -9.6 0.9 -1.3 1.6 -3.2 1.6 -4.2 0 -3.2 -2.1 -8.2 -3.4 -8.2 -0.7 0 -2.1 -0.9 -3.1 -2 -2.2 -2.4 -1.6 -7.8 1.4 -11.7 1.2 -1.4 2.1 -3.9 2.1 -5.5 0 -1.6 0.6 -4.4 1.4 -6.3 2.5 -6 9.7 -5.7 10.9 0.5 0.4 1.8 1.3 3 2.2 3 0.8 0 1.5 -0.4 1.5 -0.8 0 -0.5 1.9 -1.4 4.3 -2.1 4.4 -1.3 11.6 -5.5 18.1 -10.5 4.2 -3.3 14.4 -9.6 15.5 -9.6 0.3 0 2.3 -1.5 4.3 -3.4 2.1 -1.9 7.6 -5.3 12.2 -7.6 9.4 -4.5 11.3 -4.4 14 0.8 1.2 2.3 1.2 3.1 0 5.2 -0.7 1.4 -1.3 3.2 -1.4 4.1 0 0.9 -1.1 2.4 -2.3 3.2 -1.3 0.8 -3.7 2.9 -5.3 4.6 -1.6 1.7 -4.6 4.1 -6.8 5.2 -2.1 1.1 -4.4 2.6 -5.2 3.3 -0.7 0.8 -3 2.4 -5.1 3.6 -2.1 1.3 -4.9 3.3 -6.3 4.6 -3.3 3.1 -20.1 17.1 -25 20.9 -4.6 3.5 -5.8 6.2 -3.7 7.8 0.8 0.7 2 2.9 2.7 4.9 0.6 2.1 1.6 4 2.1 4.3 0.5 0.4 0.9 2.1 0.9 3.8 0 2 1 4.3 2.6 6.2 3.5 3.9 5.4 8.6 5.4 12.9 0 2.6 0.5 3.6 2.1 4.1 2.2 0.7 5.9 6 5.9 8.6 0 0.9 1.5 4.1 3.3 7.1 1.7 3 5.2 9.6 7.7 14.6 2.5 5 5.1 9.2 5.9 9.2 1.2 0 7.6 -4.2 9.1 -6 0.3 -0.3 3 -1.7 6 -2.9 3 -1.3 7.3 -3.6 9.5 -5 2.2 -1.5 5.1 -3.2 6.5 -3.8 1.4 -0.6 5 -2.2 8 -3.6 8.6 -4 10.4 -4.1 14 -1.1 2.9 2.5 3.1 3 2.5 6.8 -1 5.7 -3.8 8.3 -11.7 10.7 -6.8 2.1 -6.8 2.1 -6.9 9.2 -0.1 7.2 -0.1 7.2 -6 12.2 -17.4 14.7 -18.8 16.5 -12.4 16.5 3.3 0 3.7 0.4 5.9 5.1 1.9 4.3 2.1 5.7 1.3 9.3 -0.9 3.9 -0.6 4.9 3.3 13.2 7 14.8 13.2 26.8 15 28.9 2.3 2.8 6 9.4 6 10.8 0 0.7 1.1 2.9 2.6 5 2.5 3.8 2.5 3.8 6.3 0 2 -2.1 4.6 -4.5 5.7 -5.4 1 -0.9 5.2 -5.1 9.2 -9.3 4.1 -4.2 7.8 -7.6 8.2 -7.6 0.5 0 5.8 -4.9 11.9 -11 6.1 -6 11.6 -11 12.3 -11 0.7 0 3 0.5 5 1.1 3.4 0.9 3.9 1.4 4.4 4.9 0.4 2.2 1 4 1.5 4 0.5 0 0.9 1.9 0.9 4.3 0 5.1 -2.6 8.1 -7.8 9.2 -2.2 0.4 -3.7 1.6 -4.7 3.6 -0.9 1.6 -1.9 2.9 -2.4 2.9 -0.5 0 -2.1 1.9 -3.6 4.3 -1.5 2.3 -5.1 6.5 -8 9.4 -2.9 2.8 -5.6 6.1 -6 7.2 -0.3 1.2 -1 2.1 -1.5 2.1 -0.5 0 -1.5 1 -2.2 2.3 -3.2 5.7 -10.1 15.3 -15.5 21.5 -3.2 3.7 -6.7 7.9 -7.6 9.4 -1 1.5 -3 3.1 -4.5 3.4 -1.5 0.4 -3.1 1 -3.7 1.4 -0.5 0.4 -1.9 0.4 -3 0z m8.1 -8.9 c1.8 -3.6 6.6 -8.1 8.6 -8.1 1.2 0 1.8 -0.7 1.8 -2.4 0 -1.3 0.7 -2.9 1.5 -3.6 0.9 -0.7 2.2 -2.7 3.1 -4.5 0.8 -1.8 2.8 -4.7 4.4 -6.6 1.7 -1.8 3.2 -4.1 3.6 -5.1 0.3 -1 0.9 -1.8 1.4 -1.8 0.5 0 1.6 -1.6 2.5 -3.5 1 -1.9 3 -4 4.6 -4.7 1.6 -0.7 2.9 -2.1 2.9 -3 0 -1 0.4 -1.8 0.9 -1.8 0.6 0 2.6 -2.5 4.6 -5.5 2.1 -3 4.1 -5.5 4.5 -5.5 0.5 0 1.5 -1.2 2.2 -2.7 0.8 -1.7 2.6 -3.1 4.8 -3.8 1.9 -0.6 4.5 -1.7 5.8 -2.5 2.5 -1.6 3 -5 0.8 -5 -0.9 0 -1.6 -1.2 -1.8 -3.2 -0.2 -2.6 -0.8 -3.4 -2.7 -3.6 -1.9 -0.3 -3.8 1.1 -8.7 6.2 -3.5 3.6 -6.5 6.6 -6.7 6.6 -0.6 0 -10.7 9.4 -20.7 19.3 -4.9 4.8 -9.3 8.7 -9.8 8.7 -0.5 0 -1.4 1.1 -2 2.6 -1.1 2.2 -1.7 2.5 -5.9 2.2 -4.7 -0.3 -4.7 -0.3 -9.5 -9.3 -2.7 -4.9 -5.2 -9.8 -5.5 -10.7 -0.3 -1 -0.9 -1.8 -1.3 -1.8 -0.4 0 -3.5 -5.7 -6.9 -12.7 -3.4 -7.1 -7.4 -15 -8.8 -17.7 -2.1 -4.1 -2.5 -5.7 -2 -10.3 0.4 -3.5 0.1 -6.5 -0.9 -8.8 -1.2 -2.9 -1.9 -3.4 -5.1 -3.7 -3.7 -0.3 -3.8 -0.4 -4.1 -4.9 -0.3 -4.3 -0.1 -4.7 4.8 -9 17.8 -15.6 17 -14.6 17 -21.1 0 -3.2 0.4 -5.8 0.9 -5.8 0.5 0 1.1 -0.9 1.4 -2 0.3 -1.3 1.4 -2 3 -2 8.1 0 15.6 -7.3 11.2 -11 -1.1 -0.9 -2.4 -0.8 -6.2 0.6 -2.6 1 -5 2.1 -5.3 2.5 -0.3 0.3 -2.3 1.2 -4.5 2 -2.2 0.8 -4.8 2.2 -5.8 3.3 -1.1 1 -4 2.7 -6.6 3.8 -2.5 1.2 -7.2 3.9 -10.5 6.1 -6.4 4.3 -12.6 5.8 -14.9 3.6 -0.7 -0.8 -3 -4.8 -5.1 -8.9 -7 -13.7 -8.5 -15.9 -11.4 -16.2 -2.3 -0.3 -2.7 -0.8 -3 -4 -0.2 -2.2 0.1 -3.8 0.7 -3.8 2 0 1.1 -2 -2.4 -5.4 -2.8 -2.8 -3.5 -4.2 -3.5 -7.3 0 -3.7 -1.4 -6.6 -5.2 -10.7 -1 -1.1 -2.1 -3.5 -2.4 -5.5 -0.9 -4.7 -4.4 -12.3 -6.2 -13.7 -2.2 -1.6 -1.1 -10.3 1.4 -11.7 1.1 -0.6 4.2 -3.2 6.9 -5.7 8.9 -8.3 23.4 -20 26.2 -21.3 2.5 -1.1 3.6 -1.9 8.3 -6.2 0.8 -0.7 2.8 -1.9 4.4 -2.7 6.9 -3.1 16 -15.2 12.9 -17.1 -1.3 -0.8 -13.1 5.3 -16.6 8.5 -1.5 1.4 -6.2 4.6 -10.5 7.2 -4.2 2.5 -10.8 6.8 -14.7 9.6 -3.8 2.8 -9 5.8 -11.5 6.7 -2.5 0.9 -5.2 2.2 -6.1 3 -2.5 2.1 -7.9 1.6 -10 -0.9 -1.1 -1.1 -1.9 -2.7 -1.9 -3.5 0 -1.5 -1.6 -1.8 -2.5 -0.3 -0.3 0.5 -1 3.5 -1.5 6.6 -0.6 3.4 -1.8 6.6 -3.1 8 -2.3 2.5 -1.9 4.1 1.6 5.4 3.9 1.5 5.8 13 3 18.4 -0.8 1.6 -1.8 4.6 -2.1 6.7 -0.6 3.3 -0.3 4.2 2.3 6.6 4.6 4.4 7.2 6.3 8.7 6.3 2 0 7.6 4.9 7.6 6.6 0 0.8 0.4 1.4 0.9 1.4 0.5 0 1.2 0.9 1.6 1.9 0.3 1.1 1.6 3.5 2.9 5.3 1.3 1.9 2.6 4.7 3 6.2 0.3 1.4 1.5 3.4 2.6 4.4 1.1 0.9 2 2.3 2 3.2 0 0.8 2.7 6.9 6.1 13.5 5.5 10.9 6.1 12.8 7 21 0.4 5 0.9 10 0.9 11.3 0 3.3 3.5 6.2 7.4 6.2 2.6 0 4.1 0.7 6 3.1 1.4 1.7 2.6 3.7 2.6 4.5 0 2 6.3 14.8 7.8 15.7 0.6 0.4 1.2 1.3 1.2 1.9 0 0.6 1 2.5 2.3 4.2 2.3 3.1 6.7 11.6 6.7 13 0 0.8 2.6 6.8 7.5 17.1 9.4 20 10.5 23.1 10.5 30.5 0 5.7 0 5.7 4.7 4.9 4.8 -0.9 6.3 -2.1 6.3 -5.2 0 -2.4 7.3 -5.6 12.8 -5.7 4.2 0 4.2 0 4.2 4.4 0 3.8 -0.4 4.7 -3.4 7 -1.9 1.4 -4.2 2.6 -5.1 2.6 -0.9 0 -1.8 1.2 -2.1 2.9 -0.4 2.1 -1.5 3.3 -3.8 4.2 -2.9 1.2 -7.6 5.3 -7.6 6.6 0 0.4 0.8 1.4 1.8 2.3 1.4 1.5 2.2 1.6 4.7 0.6 1.7 -0.7 3.5 -2.3 4.1 -3.5z m4.5 -19.2 c3.2 -2.2 3.8 -3.9 1.4 -3.9 -2.6 0 -7.5 3 -7.5 4.5 0 2.1 2.7 1.9 6.1 -0.6z"/>
  <path d="M672.7 153.5 c-0.6 -30.1 -0.2 -33.3 5.7 -46.6 2.5 -5.7 2.5 -5.7 0.2 -7.8 -1.7 -1.6 -2.5 -3.8 -3 -8.1 -0.4 -3.3 -1.1 -6.2 -1.5 -6.4 -0.9 -0.6 -3.1 3.7 -3.1 5.9 0 0.8 -1.5 3.2 -3.4 5.2 -3.7 4.2 -6.6 9.3 -6.6 11.8 0 2.4 -2.7 1.7 -3.4 -0.9 -0.8 -3.1 2.4 -10.3 6.2 -14 1.7 -1.5 3.3 -4.2 3.6 -6 0.9 -4.6 3.3 -7.6 6.1 -7.6 3.2 0 5.2 3.2 6.1 9.7 0.4 3.6 1.4 5.9 3 7.4 3 2.8 3 5.3 0 12.2 -6.4 14.4 -6.5 15.1 -5.9 45.2 0.6 27 0.6 27.5 -1.4 27.5 -1.9 0 -2 -0.9 -2.6 -27.5z"/>
  <path d="M659.1 152 c-0.6 -2.8 -1.1 -12.7 -1.1 -22 0 -16.3 0.1 -17 2 -17 1.9 0 2 0.7 2 14.3 0 7.9 0.3 17.8 0.6 22 0.6 6.6 0.5 7.7 -0.9 7.7 -1 0 -1.9 -1.6 -2.6 -5z"/>
 </g>
 <g fill="#ffffff">
  <path d="M158.7 502 c-2.1 -3.5 -6.3 -6.6 -10.3 -7.6 -3.2 -0.8 -3.3 -0.9 -8.9 -7.8 -4.3 -5.2 -12.4 -11.7 -17.3 -13.8 -1.7 -0.7 -6 -4 -9.6 -7.3 -3.6 -3.3 -7.8 -7 -9.3 -8.3 -1.5 -1.2 -8.1 -6.6 -14.6 -12 -6.5 -5.3 -13.7 -11.2 -16 -13 -4.8 -3.7 -18.9 -15.7 -22.1 -18.7 -1.2 -1.1 -2.4 -1.9 -2.7 -1.8 -0.3 0.1 -4.1 -3.4 -8.5 -7.8 -4.3 -4.3 -8.4 -7.9 -9 -7.9 -0.7 0 -1.4 -0.4 -1.6 -1 -0.6 -1.6 -5.2 -7.2 -9.5 -11.4 -4.8 -4.7 -6.3 -9.3 -4.3 -13.2 2 -3.7 5 -2.9 12.4 3.4 3.8 3.1 8.1 6.6 9.5 7.7 1.4 1.1 5.7 4.6 9.6 7.9 3.8 3.2 9.7 7.2 13.1 8.7 3.5 1.6 6.5 3.3 6.9 3.9 0.3 0.6 2.5 2 4.7 3.1 2.7 1.4 3.7 2.4 3 3.1 -0.7 0.7 -1.8 0.5 -3.5 -0.6 -2.1 -1.5 -2.6 -1.5 -3.7 -0.1 -0.7 0.8 -1 2.1 -0.7 2.9 0.6 1.6 19.6 17.9 32.5 27.9 11.3 8.7 23.3 16.7 25.3 16.7 2.2 0 5.9 4.2 5.9 6.8 0 2.6 7.1 10.3 7.7 8.5 0.5 -1.4 -2.2 -14.6 -3.6 -17.8 -0.5 -1.1 -1.5 -4.1 -2.1 -6.7 -0.7 -2.6 -1.9 -5.3 -2.6 -5.9 -0.8 -0.6 -1.4 -1.7 -1.4 -2.4 0 -1.5 -5 -12.8 -6 -13.5 -0.4 -0.3 -1 -2.3 -1.4 -4.5 -0.4 -2.2 -2.2 -7.8 -4.1 -12.5 -1.8 -4.7 -3.8 -10.5 -4.5 -13 -0.6 -2.5 -2.2 -6.7 -3.5 -9.5 -4.6 -9.6 -7 -15.8 -19.3 -50.2 -2.2 -6.2 -4.8 -14.3 -5.7 -18 -0.9 -3.7 -3.7 -12.4 -6.2 -19.3 -2.5 -6.9 -5.2 -15.2 -6.1 -18.5 -1 -3.3 -2.9 -8.5 -4.4 -11.5 -1.4 -3 -3.2 -8.4 -3.8 -12 -1.3 -7.2 -4.5 -15 -6.1 -15 -1.1 0 -8 7 -11.4 11.5 -1.1 1.5 -4.4 5.5 -7.3 8.8 -6.5 7.7 -8.3 11.4 -8.9 18.9 -0.6 5.6 -0.4 6.1 2.7 9.3 3.6 3.7 3.3 5.5 -1.1 5.5 -4 0 -11.9 -6.7 -11.9 -10.2 0 -3.1 -4.3 -4.3 -10.1 -3 -6.9 1.6 -8.3 0.5 -7.5 -5.9 0.5 -3.8 1.6 -5.6 6.1 -10.5 3 -3.2 5.5 -6.4 5.5 -7 0 -0.6 0.7 -1.7 1.5 -2.4 0.8 -0.7 1.5 -2 1.5 -2.9 0 -1.8 5.1 -9.4 8.9 -13.2 2.6 -2.7 13.1 -18.9 13.1 -20.2 0 -0.5 2 -4.2 4.5 -8.1 2.5 -4 4.5 -7.7 4.5 -8.2 0 -0.5 1.1 -2.5 2.4 -4.5 4.5 -6.6 8.6 -14.9 8.6 -17.4 0 -1.4 0.4 -2.5 0.9 -2.5 0.6 0 2.6 -3.5 4.6 -7.7 11.7 -24.8 16.6 -32.3 21 -32.3 3.8 0 5.8 4 6.3 13 0.4 6.9 0.2 8.2 -1.7 10.7 -7.9 10.2 -10.1 13.5 -12.9 19.4 -3.7 7.7 -3.8 8.2 -1.2 7.4 2.3 -0.7 6.3 1.2 5.5 2.5 -0.4 0.6 0.2 2.3 1.1 3.9 1.7 2.9 1.7 3 -2 8.5 -2 3.1 -5.1 8.5 -6.8 12.1 -3 6.6 -3 6.6 -1.4 16.8 0.9 5.6 3.2 15.4 5.1 21.7 2 6.3 4.5 15.1 5.6 19.4 1.1 4.4 2.7 9.3 3.5 10.9 1.8 3.4 7.3 18.5 11.6 31.6 1.6 5.2 5.9 15.4 9.3 22.5 3.5 7.2 7.5 16 8.8 19.6 3.9 9.9 12.7 29 14.7 31.9 1 1.4 4.2 9.6 7 18.1 2.9 8.5 6.5 18.2 8 21.5 3.2 6.6 4.2 10.6 6.4 23.9 1 5.7 2.8 11.4 5.1 16.2 1.9 4.1 3.5 7.8 3.5 8.3 0 0.5 0.7 1.4 1.5 2.1 0.8 0.7 1.5 2.7 1.5 4.5 0 2.3 1.1 4.6 3.5 7.5 2.2 2.6 3.5 5.3 3.5 7 0 5 -0.9 6 -5.4 6 -3.6 0 -4.4 -0.4 -5.9 -3z"/>
  <path d="M175.1 472.5 c-1.1 -1.5 -2.3 -4.3 -2.7 -6.4 -0.4 -2 -2.4 -8.1 -4.4 -13.6 -2.1 -5.5 -4.6 -12.7 -5.5 -16 -0.9 -3.3 -2 -7.1 -2.5 -8.5 -0.5 -1.4 -1.2 -7.9 -1.4 -14.4 -0.4 -8.8 -1 -12.3 -2.1 -13.6 -1 -1.1 -1.9 -5 -2.5 -10.1 -0.5 -4.6 -1.5 -10.4 -2.3 -12.9 -2.3 -7.2 -3.6 -13.7 -5.2 -26.3 -0.9 -6.6 -2.2 -13.5 -3.1 -15.5 -0.8 -2 -1.2 -4.3 -0.9 -5.1 0.6 -1.5 -0.8 -8.1 -5.7 -26.3 -1.5 -5.9 -2.8 -11.6 -2.8 -12.6 0 -1 -1.6 -6.5 -3.5 -12.3 -1.9 -5.7 -3.7 -12.4 -4 -14.9 -0.2 -2.5 -1.6 -8.5 -3.1 -13.5 -1.5 -4.9 -3 -11 -3.4 -13.5 -2 -11.5 -8.3 -34.8 -10.1 -37.2 -1 -1.5 -1.9 -3.1 -1.9 -3.5 0 -0.4 -1.6 -2.6 -3.5 -4.7 -4.1 -4.6 -4.5 -8.4 -1.5 -13.3 1.5 -2.6 2.7 -3.3 5 -3.3 3.1 0 3.3 -0.3 4.4 -8.2 1 -7.9 5.8 -11 10.5 -6.7 3.1 2.9 3.8 5.1 5.6 17.9 0.8 6.1 2.1 12.5 2.8 14.3 1.8 4.2 15.2 28.1 18.7 33.2 1.5 2.2 6.1 10.1 10.2 17.5 10.9 19.7 11.5 20.7 17.8 30 3.1 4.7 8.7 13 12.4 18.5 8.9 13.2 14 19.1 19.5 22.6 3.8 2.5 4.7 3.7 6.3 8.6 1.1 3.7 3.7 8.3 7.3 12.8 3 3.9 7.5 9.6 10 12.7 2.5 3.2 4.5 6 4.5 6.4 0 0.9 5.4 7.7 11.9 15.3 5.7 6.4 10.7 12.9 18.2 23.4 2.8 4 4.4 5.6 5.1 4.9 1.8 -1.8 0.5 -23.5 -1.5 -26.6 -0.9 -1.4 -1.7 -3 -1.7 -3.5 0 -1.7 -4.6 -11 -10.5 -21.1 -3 -5.2 -7.6 -13.8 -10.1 -19 -2.5 -5.2 -5.4 -11.3 -6.5 -13.5 -1.1 -2.2 -3 -5.8 -4.4 -8 -1.3 -2.2 -2.9 -5.1 -3.6 -6.5 -0.6 -1.4 -3.7 -7.9 -6.9 -14.5 -3.2 -6.6 -7.5 -15.6 -9.5 -20 -7.6 -16.3 -13 -27.1 -15.5 -31 -2.4 -3.5 -6.1 -10.1 -11.3 -20 -5.9 -11.1 -15.7 -32.1 -15.7 -33.6 0 -2.5 5.5 -6.8 7.9 -6.2 1.3 0.3 2.3 -0.2 3 -1.6 1.7 -3.1 6.3 -2.7 10.4 0.9 4.6 4 7.5 11.2 8.3 20.1 0.3 4.1 1.9 11.2 3.4 15.9 1.5 4.7 4 12.3 5.4 17 2.3 7.6 6.8 16.7 18.5 38 7.3 13.3 9.7 17.4 13.7 23.5 2.2 3.4 4.7 7.8 5.4 9.6 0.8 1.9 3 6.1 4.8 9.4 1.9 3.3 4.6 8.5 6.1 11.5 1.5 3 4 7.4 5.5 9.8 4.5 6.6 5.1 4.5 3.7 -11.4 -1.1 -12.8 -1.4 -14 -4.1 -17.4 -3.2 -4 -3.2 -3.9 0.3 -13.5 2.1 -5.7 0.7 -17.1 -2.2 -18 -1 -0.3 -2.4 -1.9 -3.1 -3.4 -0.6 -1.6 -3.9 -5.5 -7.1 -8.6 -3.8 -3.6 -6.2 -6.9 -6.6 -8.8 -0.4 -1.9 -1.7 -3.5 -3.6 -4.6 -4.2 -2.3 -8.7 -6.1 -8.7 -7.4 0 -1.6 4.3 -7.6 6 -8.3 0.8 -0.3 3.4 -0.8 5.7 -1 3.9 -0.4 4.2 -0.2 4.8 2.6 0.4 1.9 3 5 7.6 9.1 7 6.2 7 6.2 10.4 4.3 3.4 -1.8 3.4 -1.8 6 0.6 2.2 2.1 2.5 3.1 2.5 9.6 0 7.2 0 7.2 6 15.1 11.1 14.6 25.3 31.6 33.6 40.3 2.4 2.5 5.2 5.6 6.3 7 1.7 2.1 2.2 2.3 3 1 0.6 -0.8 0.8 -2.4 0.6 -3.5 -0.2 -1.1 -1.1 -5.6 -2 -10 -0.9 -4.4 -2.3 -10.5 -3.2 -13.5 -0.8 -3 -2.1 -9.5 -3 -14.5 -0.8 -4.9 -2 -9.9 -2.5 -10.9 -3.5 -6.7 -7.8 -24.4 -7.8 -32.3 0 -2.3 -0.5 -5.4 -1.1 -7 -0.6 -1.5 -1.5 -6.6 -2.1 -11.3 -1.2 -10.2 -1.2 -10.4 -2.6 -15.5 -1.9 -7.1 -13.1 -54.8 -14.7 -63 -0.9 -4.4 -2.5 -11.6 -3.5 -16 -4.1 -17.2 -3.2 -26.5 2.5 -26.5 3.7 0 5.1 3.4 6.4 15 1.5 14.3 2.6 17.6 5.9 19.2 3.1 1.5 5.1 6.2 5.1 12.5 0.2 10.8 8.6 49.5 15.6 71.3 3.4 10.5 11.7 41.4 12.9 48 1.9 10.3 10.6 39.4 14.1 47.3 3.7 8.5 7.8 28.2 7.9 37.6 0.1 8.5 0.1 8.5 3.6 9.3 5.4 1.4 7 4 6.9 10.9 -0.2 7.5 -1.4 9.4 -4.9 7.6 -6.1 -3.3 -7.9 -4.7 -15.8 -12.9 -4.5 -4.7 -9.7 -9.2 -11.5 -9.9 -3.8 -1.5 -7.7 -4.8 -7.7 -6.5 0 -0.6 -0.7 -1.7 -1.6 -2.5 -0.9 -0.7 -5.4 -6.3 -10 -12.3 -10.7 -14.1 -19.5 -24.6 -26.2 -31.6 -4.3 -4.5 -5.4 -5.2 -6.2 -4 -0.6 0.8 -0.8 2.6 -0.5 4 0.3 1.4 1 7.7 1.5 14 0.6 6.3 1.3 12.2 1.5 13 0.2 0.8 0.9 9.4 1.5 19 1.3 21.4 2.2 26.5 5.9 34.9 1.6 3.6 4.1 9.9 5.7 13.9 2.3 6.1 3.3 7.6 6.6 9.4 4 2.3 4.3 3.1 3.9 11.1 -0.2 3.6 -0.9 5.4 -2.8 7.3 -2.3 2.3 -2.7 2.4 -4.2 1 -1 -0.9 -2.5 -1.6 -3.5 -1.6 -0.9 0 -3.2 -0.6 -5.1 -1.4 -2.7 -1.2 -3.6 -2.3 -4.5 -5.8 -1.6 -6 -3.5 -7.8 -8.2 -7.8 -3.2 0 -3.8 0.3 -3.8 2 0 1.2 1.1 3.1 2.5 4.4 2.1 2 2.5 3.1 2.3 7.7 -0.2 4.4 0.3 6.1 2.5 9.3 3 4.3 3.5 8.1 1.2 9 -0.9 0.3 -1.5 1.8 -1.5 3.4 0 3.7 -2 5.4 -5.6 5 -2.3 -0.2 -3.2 -1.2 -4.9 -5.3 -4.2 -10.2 -5.2 -11.5 -9.1 -11.5 -4.4 0 -6.5 -2.2 -14 -14.8 -3.2 -5.3 -7.2 -11.5 -8.9 -13.6 -3 -3.9 -7.2 -10.5 -14.1 -22.4 -2 -3.4 -5.6 -9 -8.1 -12.4 -2.5 -3.4 -5.2 -7.6 -5.9 -9.4 -0.8 -1.8 -2.3 -3.8 -3.5 -4.4 -2.7 -1.5 -4.8 0.4 -8.4 7.3 -4.3 8.6 -12.7 19 -17 21.3 -2.2 1.1 -4.6 3.2 -5.3 4.7 -0.7 1.5 -1.7 2.7 -2.3 2.7 -2.5 0 1.5 19.5 9.1 44 1.6 5.3 1.9 8.4 1.5 16.5 -0.5 12.6 -1.8 19.2 -3.8 20.8 -0.9 0.6 -2 2.8 -2.4 4.7 -1.2 4.5 -4.2 5.2 -7.2 1.5z m-5.5 -52.5 c-0.4 -1.9 -1.3 -7.1 -2 -11.5 -2.1 -12.5 -3.4 -16.1 -6.1 -17.9 -2.4 -1.6 -2.5 -1.6 -2.5 0.6 0 1.3 1.2 5.5 2.6 9.3 1.4 4.1 2.7 10.3 3 15 0.4 4.4 1.3 9.6 2.1 11.5 1.5 3.5 1.5 3.5 2.5 0 0.5 -1.9 0.7 -5.1 0.4 -7z m-10.7 -49.2 c-0.9 -7.1 -6.3 -21.7 -7.5 -20.5 -0.5 0.4 2 16 3 18.7 2.2 6 2.7 7 3.9 7 1 0 1.1 -1.2 0.6 -5.2z m28 -8.4 c1.2 -1.5 2.1 -3.4 2.1 -4.4 0 -0.9 1.1 -2.7 2.5 -4 2.5 -2.3 3.4 -6 1.5 -6 -0.5 0 -1.7 1.2 -2.7 2.6 -1 1.4 -3.5 4.6 -5.5 7 -2.1 2.5 -3.8 5.2 -3.8 6 0 2.3 3.7 1.6 5.9 -1.2z m-15.9 -6.6 c0 -0.5 1.1 -2.3 2.5 -4 1.4 -1.6 2.5 -3.5 2.5 -4.2 0 -1.1 6.5 -10.5 14 -20 1.6 -2.1 3 -4.6 3 -5.6 0 -2.1 -11.5 -22.7 -15.9 -28.5 -1.7 -2.2 -5.2 -7 -7.8 -10.7 -2.7 -3.6 -7.3 -9.7 -10.3 -13.5 -3.1 -3.7 -6.4 -8.1 -7.5 -9.8 -1 -1.6 -3.1 -4.3 -4.7 -5.8 -2.5 -2.5 -2.9 -2.6 -3.5 -1.1 -0.3 0.9 0.4 5.1 1.7 9.3 1.2 4.2 3 12.1 4 17.6 1 5.5 2.9 13.5 4.4 17.7 1.4 4.2 2.6 8.5 2.6 9.5 0 1 0.6 4.1 1.4 6.8 5.1 19 7.7 29.6 8.6 35.3 0.6 3.6 1.6 7.2 2.2 7.9 1.1 1.4 2.8 0.9 2.8 -0.9z m98.5 -14 c-0.4 -1.3 -0.9 -3.2 -1.2 -4.3 -0.3 -1.1 -2.2 -5.4 -4.3 -9.5 -2 -4.1 -4.1 -8.6 -4.5 -10 -0.4 -1.4 -2.5 -4.5 -4.6 -7 -2 -2.5 -4.8 -7.2 -6.2 -10.5 -2.4 -5.8 -4.8 -7.8 -6.2 -5.5 -0.4 0.7 0.1 2.4 1.2 3.8 1.1 1.5 3.4 6.3 5.2 10.7 1.8 4.4 4.7 10.5 6.6 13.5 1.8 3 4.3 7.5 5.5 10 4.2 8.5 10.2 14.7 8.5 8.8z m-119.4 -46.1 c-0.6 -0.6 -1.1 -1.8 -1.1 -2.6 0 -3.6 -2.2 -9.1 -3.6 -9.1 -1.9 0 -1.1 3.5 2.4 11 1.8 3.9 2.6 5 2.9 3.6 0.3 -1 0 -2.3 -0.6 -2.9z m-5.1 -16 c0 -2.6 -0.9 -3.9 -2 -3.2 -1 0.6 0 5.5 1.1 5.5 0.5 0 0.9 -1 0.9 -2.3z m-11.3 -43.7 c-1.8 -2.6 -2.8 -1.4 -1.6 1.9 0.7 1.8 1.3 2.1 2 1.4 0.8 -0.8 0.7 -1.7 -0.4 -3.3z"/>
  <path d="M483.5 461 c-0.3 -0.5 -1.4 -1 -2.4 -1 -3.7 0 -6.3 -4.5 -7.7 -13.6 -0.9 -5.4 -2.2 -9.6 -3.4 -11.2 -1.1 -1.3 -2 -2.9 -2 -3.4 0 -0.4 -1.8 -5.4 -4.1 -11.1 -2.2 -5.6 -4.9 -13.1 -5.9 -16.7 -1 -3.6 -3.5 -11 -5.4 -16.5 -7 -19.6 -11.2 -32.8 -16.3 -51 -0.3 -1.1 -1 -2.5 -1.5 -3.2 -0.5 -0.6 -1.8 -4.5 -2.8 -8.5 -2.3 -8.8 -6.3 -21.4 -9.2 -28.3 -1.1 -2.7 -2.5 -7.2 -3 -10 -1.1 -5.4 -2.4 -8.5 -3.7 -8.5 -1.3 0 -6.8 11.6 -8.7 18 -3.9 13.6 -3.9 14.2 -1.4 21.1 1.3 3.5 3.4 8.7 4.7 11.4 2.3 4.8 3.2 8.1 8.8 34 1.4 6.1 3.4 13.5 4.6 16.5 3.5 8.9 3.5 11 -0.1 18 -1.8 3.5 -4.5 7.6 -6 9.2 -3.3 3.2 -7.5 3.7 -8.9 0.9 -0.6 -1 -2.4 -9.4 -4.1 -18.7 -1.7 -9.3 -3.9 -19.6 -4.9 -22.9 -1 -3.3 -3.1 -9.8 -4.5 -14.5 -1.4 -4.7 -4.2 -14.7 -6.1 -22.2 -1.9 -7.6 -4.1 -15 -4.9 -16.5 -2.8 -5.5 -11.5 -30 -13.6 -38.3 -1.2 -4.7 -3.9 -12.4 -6.1 -17.3 -2.1 -4.8 -3.9 -9.8 -3.9 -11.2 0 -2.7 -2.7 -10.2 -4.5 -12.5 -1.8 -2.2 -5.1 -11.4 -7.9 -21.5 -3.1 -11.3 -9.9 -30.9 -11.3 -32.7 -1.1 -1.5 -5.9 -10.6 -9.8 -18.7 -1.4 -2.9 -3 -8.2 -3.5 -11.8 -0.5 -3.5 -2.2 -9.4 -3.9 -13 -4.6 -9.8 -4 -16.3 1.6 -16.3 3 0 6.5 5.4 9.6 15 1.4 4.1 3.6 10 5 13 4.1 8.6 11.9 30 17.1 46.5 2.6 8.3 5.4 16.8 6.3 19 4 10.5 7.8 20.9 11 30.5 2 5.8 4.6 13 5.9 16 1.2 3 4.3 11.5 6.8 18.8 4.7 14 6.9 18.6 8.9 18 0.7 -0.2 2.6 -3.1 4.2 -6.4 1.7 -3.4 3.5 -6.7 4.1 -7.5 0.6 -0.8 2.6 -5.2 4.3 -9.9 5.8 -15.1 5.6 -14.1 3.1 -21.1 -1.2 -3.5 -3.1 -8.9 -4.1 -11.9 -1 -3 -2.8 -7.1 -3.8 -9 -1.1 -2 -2.4 -5.4 -3 -7.5 -0.5 -2.2 -2.8 -9.2 -5 -15.5 -2.3 -6.3 -4.8 -14.3 -5.6 -17.7 -0.8 -3.5 -4 -13.6 -7 -22.5 -3.1 -9 -6 -18.5 -6.6 -21.3 -0.5 -2.7 -2.1 -7.8 -3.5 -11.3 -3 -7.6 -2.8 -10.8 0.8 -13.5 4.3 -3.2 7.7 -1.1 10.6 6.2 1.2 3.2 2.2 6.5 2.2 7.2 0 0.8 1.6 6.1 3.5 11.9 6.3 18.8 10.8 33.4 12.2 39.7 1.5 7.1 11.6 39.1 13.4 42.5 0.6 1.3 2.7 4.4 4.6 7 3.6 4.9 5.3 11.8 5.3 21 0 4.2 5.5 23.6 7.9 27.9 1.5 2.5 7.7 18 9.1 22.4 0.7 2.2 2.1 5.4 3.1 7.1 1.1 1.7 1.9 4 1.9 5.1 0 1 0.4 2.3 0.9 2.8 1.1 1.3 7.7 16.4 10.6 24.5 1.2 3.6 3.9 10.3 5.9 14.9 1.9 4.6 4.3 10.9 5.2 14 0.9 3.1 3.1 8.3 4.9 11.6 1.8 3.3 4.2 8.9 5.4 12.5 2.1 6.7 5.2 13.5 8.4 18.2 1.3 1.9 2.1 5.8 2.7 12.8 0.5 5.6 1.4 12.7 2 15.8 1.1 5.3 1 6.1 -1.5 11 -2.6 5.1 -3.8 6.2 -5 4.2z m-21 -82 c0.8 -1.3 -1.8 -7.2 -4 -9 -1.6 -1.4 -1.7 -1.2 -1 2 1.6 7.2 3.3 9.7 5 7z m-9.9 -27.6 c-0.3 -0.9 -0.9 -2.6 -1.2 -3.9 -0.3 -1.3 -1.2 -2.6 -2 -2.9 -1.9 -0.7 -1.8 3.3 0.2 6.2 1.7 2.5 3.9 3 3 0.6z"/>
  <path d="M517.6 425.5 c-3.5 -4.6 -7.5 -13.1 -8.2 -17.8 -0.4 -2.1 -1.5 -4.3 -2.5 -5 -1 -0.7 -2.3 -2.6 -2.9 -4.2 -1.6 -4.1 0.2 -8.3 6.1 -14 7.2 -7.2 9.2 -10.6 7.9 -14 -0.6 -1.5 -2.2 -6.8 -3.6 -11.8 -1.4 -5.1 -5.4 -15.7 -8.9 -23.7 -6.7 -15.3 -11 -26.1 -17.7 -45 -2.2 -6.3 -6.6 -16.9 -9.8 -23.5 -6.3 -13.1 -8.1 -17.3 -13.5 -31.3 -2 -5.1 -4 -10.1 -4.4 -11 -0.5 -0.9 -2.3 -5.5 -4 -10.2 -1.8 -4.7 -4 -10.3 -5.1 -12.5 -1 -2.2 -2.4 -6.2 -3 -8.8 -0.7 -2.6 -2.1 -5.8 -3 -7 -0.9 -1.2 -2 -3.9 -2.4 -5.9 -0.7 -3.8 -2.3 -5.8 -3.5 -4.2 -0.3 0.5 -1.9 1.8 -3.4 2.8 -1.7 1 -4.1 4.3 -5.9 8.2 -2.5 5.3 -2.9 7.3 -2.6 12.1 0.2 3.2 0.7 6.5 1.1 7.3 0.5 1.1 -0.4 2 -3.1 3.3 -4.7 2.1 -6.6 2.1 -8.1 0.3 -2.4 -2.9 -2.4 -8.4 -0.1 -14.6 1.5 -4.1 2 -7 1.6 -9.2 -0.4 -1.8 -0.9 -4.5 -1.3 -6.1 -0.6 -3.2 2.5 -8.4 6.9 -11.3 1.6 -1 5.2 -5.3 8 -9.4 6.9 -10.1 21.3 -26.3 24.1 -27.2 6.7 -1.9 9.3 0.3 7.6 6.5 -0.5 2 -2.1 5 -3.5 6.6 -2.6 3.1 -2.5 5.1 0.2 5.1 0.8 0 2 1.2 2.6 2.6 1.1 2.4 1 2.9 -1.7 5 -8.7 6.8 -9.5 7.7 -9.5 10 0 1.4 0.7 3.8 1.5 5.3 1.7 3.3 12.9 37 14 42.1 0.4 1.9 2.9 8.5 5.5 14.5 2.6 6.1 5.1 12.1 5.5 13.5 0.4 1.4 1.8 4.5 3 7 1.3 2.5 3.7 8.6 5.4 13.5 1.6 5 5.5 15.3 8.6 23 3.2 7.7 7.5 18.5 9.6 24 9.9 24.9 22.7 50.5 25.3 50.5 3.5 0 18.4 -19.3 20.7 -26.8 1.4 -5 2.2 -5.2 3.9 -1.3 0.8 2.1 0.9 3.5 0.1 4.9 -0.6 1.2 -1.1 3.1 -1.1 4.4 0 1.3 -0.7 3.1 -1.4 4.1 -1 1.2 -1.2 3.6 -0.9 8.1 0.6 6.3 0.6 6.3 -4.6 11.2 -2.9 2.7 -6.1 6.4 -7.3 8.2 -2 3.3 -2 3.4 -0.3 11.6 2.2 10.6 1.6 14.5 -3 18 -1.8 1.4 -3.8 2.6 -4.3 2.6 -1.4 0 -5 -4.2 -6.1 -7.2 -1.5 -3.9 -3.9 -3.5 -5.8 0.9 -2.1 5.1 -1.2 11.7 2.8 20.3 1.7 3.8 2.8 7.3 2.5 7.9 -1.4 2.3 -5.4 1.1 -8 -2.4z"/>
  <path d="M592.6 416.8 c-0.8 -1.3 -2.4 -6.5 -3.5 -11.7 -1.4 -6.2 -2.9 -10.5 -4.6 -12.7 -2.8 -3.7 -10.6 -26.4 -12.6 -36.5 -0.6 -3.5 -3.3 -12.7 -5.9 -20.4 -2.6 -7.7 -5.3 -16.3 -5.9 -19.1 -0.7 -2.8 -2.2 -6.6 -3.4 -8.5 -2.2 -3.5 -8.4 -19 -11.6 -28.9 -1 -3 -3.4 -8.6 -5.4 -12.4 -2.1 -3.8 -3.7 -7.6 -3.7 -8.3 0 -0.8 -0.9 -2.6 -1.9 -3.9 -1.9 -2.4 -4.2 -8.5 -5.5 -14.6 -0.4 -1.6 -1.2 -2.8 -2 -2.8 -1.4 0 -3 -3.2 -4.2 -8.3 -0.3 -1.5 -1 -3 -1.5 -3.3 -0.5 -0.3 -0.9 -1.5 -0.9 -2.8 0 -1.2 -1.3 -4 -2.9 -6.2 -1.5 -2.1 -3.4 -5.7 -4.1 -7.9 -0.7 -2.2 -1.6 -4.4 -2.1 -4.9 -0.5 -0.6 -0.9 -2 -0.9 -3.1 0 -1.2 -0.9 -3 -2 -4 -1.1 -1 -2 -2.4 -2 -3.1 0 -0.7 -1.1 -2.6 -2.5 -4.2 -1.4 -1.7 -2.5 -3.2 -2.5 -3.5 0 -2.2 -6.9 -14.7 -9.2 -16.7 -2.3 -2 -3 -3.6 -3.4 -8 -0.3 -3 -1.5 -6.7 -2.5 -8.2 -1 -1.5 -1.9 -3.1 -1.9 -3.5 0 -0.4 -1.6 -2.8 -3.5 -5.2 -3.6 -4.5 -3.6 -4.5 -3.3 -16 0.2 -9.3 0.6 -11.6 1.7 -11.6 1.3 0 5.6 5.9 7.8 10.5 0.4 0.8 2 3.2 3.6 5.2 2.9 3.7 2.9 3.7 6.3 2.1 3.1 -1.5 3.5 -1.5 5.3 0.1 1 0.9 2.2 3.6 2.5 5.9 0.6 3.5 1.9 5.3 9 12.2 9.1 8.8 17.3 19.1 27.9 35 1.9 2.8 5.2 7.2 7.5 9.8 2.3 2.7 4.2 5.4 4.2 6.2 0 0.7 2.3 3.7 5.2 6.7 2.8 2.9 9.1 10.6 13.9 17 4.9 6.4 9.5 12.1 10.2 12.5 0.8 0.4 2 1.9 2.7 3.3 1.4 2.6 1.7 3 15.8 20.5 19.8 24.5 20.1 21.8 2.5 -22.5 -3.6 -9.1 -7.2 -17.4 -7.8 -18.5 -0.7 -1.1 -1.6 -5.1 -2 -9 -0.5 -5.2 -1.3 -7.7 -3.1 -9.8 -1.3 -1.6 -2.4 -3.7 -2.4 -4.7 0 -1.1 -1.4 -3.9 -3.1 -6.3 -1.7 -2.5 -3.5 -6.6 -4 -9.3 -0.5 -2.7 -1.7 -5.6 -2.7 -6.4 -2.2 -1.9 -5.2 -9.4 -4.6 -11.8 0.3 -0.9 -0.4 -3.9 -1.5 -6.5 -1.1 -2.5 -2.1 -6.7 -2.2 -9.2 -0.2 -2.6 -0.6 -4.8 -1.1 -5.1 -0.4 -0.3 -0.8 -1.6 -0.8 -3 0 -2.7 -1.7 -6.5 -3.3 -7.6 -0.6 -0.4 -1.1 -2.4 -1.1 -4.5 0 -2.1 -0.4 -4.1 -0.9 -4.4 -0.5 -0.4 -2 -5.8 -3.3 -12 -3.2 -15 -3.4 -15.6 -12.5 -34.7 -7.8 -16.1 -9.1 -20.6 -6.7 -23 1.9 -1.9 6.6 -1.4 8.8 0.8 1.1 1.1 3.3 2 4.8 2 3.5 0 4 1 7.7 16 2.3 9.8 5.1 19.4 10.6 37 0.6 1.9 3.5 9.6 6.5 17.1 3 7.4 5.4 14 5.4 14.6 0 1.3 7.7 18.6 11.3 25.3 1.3 2.5 2.7 5.8 3.1 7.5 0.4 1.6 1.6 4.8 2.7 7.2 1 2.3 1.9 4.6 1.9 5.2 0 0.6 2.4 5.5 5.4 10.9 2.9 5.4 5.7 10.9 6.1 12.2 0.4 1.4 2.8 6.5 5.2 11.4 4 8 8.1 17.6 11.9 28 0.8 2.1 2.1 5.1 2.9 6.7 0.8 1.5 2.6 5.6 3.8 9.1 9.1 24.3 12.1 31.7 15.7 38.9 2.8 5.5 3.8 8.5 3.1 9.2 -1.6 1.6 -3.9 0 -4.9 -3.5 -1.7 -6.1 -11.6 -25.8 -13 -25.8 -1.9 0 -1 3.6 5 20.5 7.5 21.2 8.5 23.4 13.6 30.3 2.6 3.5 6.2 8.4 8 10.8 3.4 4.7 4.2 9.8 1.8 10.7 -0.8 0.3 -1.6 1.6 -1.8 2.9 -0.8 5.7 -9 2.1 -15.8 -7 -2 -2.6 -6.1 -6.4 -9.2 -8.4 -4.3 -2.9 -5.9 -4.6 -6.8 -7.5 -0.7 -2.1 -2.2 -5.6 -3.5 -7.8 -1.2 -2.2 -2.6 -5.4 -2.9 -7.1 -0.4 -1.7 -2.7 -6.2 -5 -10 -2.4 -3.8 -5.7 -8.9 -7.2 -11.4 -1.5 -2.5 -6.3 -9 -10.5 -14.5 -4.2 -5.5 -8.3 -11.3 -9.2 -13 -1.8 -3.6 -9.3 -13.5 -14.5 -19.1 -2 -2.2 -4.4 -4.9 -5.2 -6 -8.6 -11.3 -10.5 -13.6 -11.6 -14.2 -0.7 -0.4 -3 -3 -5.1 -5.9 -8 -10.9 -14.1 -18 -21.4 -25.3 -4.2 -4.2 -8.3 -9.1 -9.1 -11.1 -0.9 -1.9 -3.9 -5.6 -6.8 -8.2 -5.2 -4.6 -8 -5.9 -8 -3.4 0.1 2.8 6 20 7.9 22.6 1.2 1.6 2.4 4.4 2.7 6.3 0.3 1.8 1.5 5.8 2.6 8.8 1.1 3 2.6 7.3 3.3 9.5 0.8 2.2 2.5 6.2 3.9 8.9 1.4 2.7 2.6 6 2.6 7.2 0 1.3 1.3 3.8 2.9 5.6 1.5 1.8 3.1 4.3 3.5 5.4 0.4 1.2 1.8 3.4 3.2 5 1.3 1.6 2.7 4 3 5.4 0.3 1.4 2.1 6.4 4 11.1 1.9 4.8 3.4 9.3 3.4 10 0 0.7 0.6 2 1.4 2.8 0.8 0.9 3.1 5.9 5 11.1 2 5.2 4.8 12 6.1 15 1.3 3 3.1 8.2 4.1 11.5 0.9 3.3 3.6 10.1 5.9 15 6.3 13.2 15.2 36.9 21.5 57.3 2.9 9.2 3.1 10.6 1.9 13 -0.7 1.5 -1.3 3.2 -1.4 3.7 -0.3 4 -6.5 4.9 -8.9 1.3z m-5.1 -235.7 c-0.7 -2.9 -1.9 -8.3 -3.3 -15 -0.6 -2.6 -2.2 -5.5 -4.1 -7.4 -5.4 -5.4 -5.1 -2.9 1.6 15.3 3.3 8.9 4.4 11 5.5 10.3 0.6 -0.3 0.7 -1.7 0.3 -3.2z m-9.9 -29.5 c0.9 -2.2 -2.5 -12.8 -3.9 -12.3 -2.2 0.7 0.1 13.7 2.5 13.7 0.5 0 1.1 -0.7 1.4 -1.4z"/>
  <path d="M723.6 392.1 c-0.9 -1 -3.9 -6.4 -6.7 -12 -2.7 -5.5 -5.8 -10.5 -6.8 -11 -2.1 -1.2 -10.6 -13.5 -11.6 -17.1 -0.5 -1.4 -2.1 -5 -3.7 -8.2 -1.5 -3.1 -3.3 -8.2 -3.9 -11.5 -0.6 -3.2 -1.9 -7.2 -3 -8.9 -1 -1.7 -3 -7.1 -4.4 -12 -1.4 -4.9 -3 -9.8 -3.5 -10.9 -0.5 -1.1 -2 -7.8 -3.4 -15 -3.7 -19.2 -5.4 -26.5 -7.1 -31 -1.6 -4.6 -2 -12.6 -0.5 -14.1 1 -1 0.6 -3.3 -3.5 -20.9 -0.8 -3.3 -1.9 -11.4 -2.5 -18 -0.6 -6.6 -1.5 -16.7 -2 -22.5 -0.6 -5.8 -1.5 -25.3 -2 -43.3 -1 -31.3 -0.9 -32.9 0.9 -36.5 1 -2 3.1 -4.8 4.5 -6.1 1.4 -1.4 3.1 -4.1 3.6 -6.2 0.6 -2 1.9 -4.7 2.9 -6 1.8 -2.2 1.9 -2.2 4.4 -0.6 2.1 1.4 2.7 2.7 3.3 7.6 0.5 4.4 1.3 6.6 3 8.2 3.1 2.9 3 6.4 -0.2 13.6 -6.1 13.9 -6.3 15.9 -5.4 51.9 2.1 77 2.5 82.8 8.4 107.9 5.5 23.4 8 30.3 20.7 57.1 2.3 4.9 5.3 9.4 7.4 11.3 4.1 3.5 5.3 3.8 6.1 1.4 0.3 -1 1 -2.6 1.5 -3.5 0.5 -1 0.9 -2.5 0.9 -3.3 0 -0.8 0.5 -1.5 1 -1.5 0.6 0 1 -1.8 1 -3.9 0 -2.2 0.4 -4.2 0.9 -4.5 0.5 -0.4 1.2 -2.5 1.6 -4.9 0.4 -2.3 1.8 -8.5 3.2 -13.7 1.3 -5.2 2.3 -11.3 2.2 -13.5 -0.4 -8.2 0 -10.3 2.1 -11 2.4 -0.8 4.5 -4.5 5.4 -9.7 0.7 -3.9 11.1 -25 15.2 -30.7 1.3 -1.9 2.4 -4.3 2.4 -5.5 0 -2.8 3.3 -8.1 6.3 -10.1 2.3 -1.5 2.4 -2.1 2.5 -11.8 0 -5.6 -0.5 -10.8 -1 -11.4 -0.6 -0.8 -3.3 -1.3 -6.2 -1.3 -4.7 0 -5.3 0.3 -8.3 4 -1.8 2.1 -3.3 4.5 -3.3 5.2 0 2.4 -8.2 8.8 -11.2 8.8 -0.7 0 -2.4 -0.9 -3.8 -1.9 -2.2 -1.8 -2.7 -1.8 -6.3 -0.4 -6 2.4 -11.7 0.9 -14 -3.9 -1.5 -3.1 -1.6 -4.2 -0.6 -8.4 1 -4 2.5 -6 8.6 -11.8 9.8 -9.3 13.7 -12 20.3 -14.1 3.2 -1.1 7.4 -3.5 10.1 -5.9 3.5 -3.2 6.2 -4.5 11.7 -5.9 11.7 -3 13.9 -0.3 13.5 16.3 -0.2 10.6 0.9 22.2 2.8 29.3 0.8 3 1.8 4.2 4.4 5.3 1.8 0.7 4.4 2.8 5.8 4.5 2.2 2.9 2.3 3.4 1.1 6.7 -0.7 2.1 -1.3 4.9 -1.4 6.5 0 1.5 -0.3 2.7 -0.8 2.7 -0.4 0 -1.2 1 -1.7 2.3 -0.6 1.2 -2 2.3 -3.1 2.5 -3.4 0.5 -5.4 3.5 -6.1 9.1 -0.3 2.9 -1.5 6.7 -2.7 8.4 -1.2 1.8 -3.4 5.7 -5 8.7 -1.6 3 -3.5 6.2 -4.3 7.1 -0.8 0.9 -1.7 3.3 -2 5.3 -0.3 2 -1 3.9 -1.4 4.2 -0.5 0.3 -0.9 1.3 -0.9 2.2 0 2.3 -5.7 9.2 -7.6 9.2 -3.3 0 -10.3 20.9 -11.1 33.1 -0.4 6.6 -0.2 9.8 1.2 13.8 0.9 2.8 2.1 5.1 2.6 5.1 0.5 0 0.9 2.3 0.9 5 0 4.9 -0.1 5 -2.9 5 -1.6 0 -3.1 -0.5 -3.3 -1.2 -0.2 -0.6 -1.1 -0.9 -2 -0.6 -1.8 0.7 -3 6 -2.2 9.3 0.3 1.3 0.1 3.1 -0.4 4.2 -0.6 1.1 -0.7 3.9 0 7.8 0.6 4.3 0.6 7.2 -0.3 10.3 -1.8 6.6 -6.8 9.2 -10.3 5.3z"/>
  <path d="M859.1 299.3 c-3.4 -1.4 -5.1 -3.9 -5.1 -7.5 0 -4.2 2.7 -7.7 7.6 -9.7 3.1 -1.2 5.2 -5.5 3.3 -6.7 -0.5 -0.3 -0.9 -0.1 -0.9 0.4 0 1.2 -3.8 2.5 -6.3 2.2 -1 -0.1 -2.9 0.6 -4.3 1.5 -3.4 2.2 -7.8 1.6 -8.2 -1.1 -0.2 -1.1 0.4 -2.7 1.3 -3.4 0.8 -0.7 1.5 -2.7 1.5 -4.5 0 -4.8 -1.7 -9.4 -10.5 -28 -4.5 -9.5 -7.7 -16.7 -8 -18 -0.6 -2.6 -3.9 -9.2 -6.1 -12 -1.3 -1.8 -2.4 -3.7 -2.4 -4.3 0 -0.6 -0.6 -1.5 -1.2 -1.9 -1.5 -0.9 -7.8 -13.7 -7.8 -15.7 0 -0.8 -1.2 -2.8 -2.6 -4.5 -1.9 -2.3 -3.4 -3.1 -5.8 -3.1 -1.8 0 -4 -0.6 -5.1 -1.3 -1.9 -1.5 -3.4 -8.5 -4 -19.2 -0.3 -5 -1.4 -8 -6.4 -18 -3.4 -6.6 -6.1 -12.7 -6.1 -13.7 0 -0.9 -0.7 -2.1 -1.6 -2.6 -0.8 -0.5 -2.1 -2.4 -2.8 -4.3 -1.4 -3.8 -3.6 -7.9 -8.1 -14.8 -2 -3.1 -4.6 -5.4 -7.9 -7.1 -2.8 -1.4 -6.5 -4 -8.4 -5.7 -3.4 -3.3 -3.5 -3.4 -2.9 -10 0.3 -3.8 1.2 -8.2 2 -9.8 2.2 -4.1 0.5 -11.2 -2.9 -12.5 -4.6 -1.8 -5.2 -7.2 -1.2 -11.6 1 -1.1 2.3 -4.7 2.8 -7.8 1.1 -6.9 2.3 -8.6 6.1 -8.6 2.3 0 3.1 0.7 4.3 3.4 1.8 4.2 3.3 5.2 5.4 3.4 0.9 -0.8 3.7 -2.2 6.2 -3.1 2.5 -0.9 7.7 -3.9 11.5 -6.7 3.9 -2.8 10.5 -7.1 14.7 -9.6 4.3 -2.6 9 -5.8 10.5 -7.3 3.1 -2.8 16.9 -10 19.4 -10.1 1.8 0 4.6 2.7 5 5 0.9 4.8 -7.9 16.8 -14.7 19.9 -1.5 0.6 -4.5 2.7 -6.8 4.5 -2.2 1.8 -5.2 3.9 -6.5 4.6 -1.3 0.7 -7.7 5.8 -14.3 11.4 -6.5 5.5 -13.6 11.5 -15.7 13.1 -4.3 3.3 -5.8 6.5 -3.7 8 1.7 1.3 5.1 9.1 6 13.6 0.3 2 1.4 4.4 2.4 5.5 3.9 4.2 5.2 7 5.2 11.1 0 3.4 0.5 4.6 2.9 6.5 2.6 2.1 6.3 7.9 6 9.3 -0.1 0.4 2.4 5.2 5.5 10.9 3.1 5.7 6.7 12.3 7.9 14.7 2.7 5.3 3.8 5.3 11.7 -0.1 3.1 -2.1 7.4 -4.5 9.5 -5.4 2.1 -0.9 5.3 -2.8 7.1 -4.1 1.8 -1.4 3.5 -2.5 3.8 -2.5 0.3 0 3.8 -1.5 7.8 -3.4 10.3 -4.8 12.8 -5.2 16.2 -2.5 2.5 1.9 2.8 2.7 2.3 6.1 -0.3 2.2 -1.4 4.9 -2.4 6 -2.2 2.5 -7.3 4.8 -10.7 4.8 -3.7 0 -5.6 3.5 -5.6 10.1 0 6.2 0.8 5.2 -17 20.8 -6 5.2 -6.1 7.4 -0.6 8.1 3.5 0.5 4 0.9 5.6 5.1 1.5 3.7 1.7 5.5 0.9 8.8 -0.8 3.7 -0.6 4.9 1.5 8.9 1.4 2.6 5.1 10.1 8.3 16.7 3.2 6.6 6.7 13.4 7.9 15 1.2 1.7 4.1 6.8 6.5 11.3 2.3 4.6 4.8 8.6 5.5 8.9 0.7 0.3 6.5 -4.6 12.8 -10.9 6.3 -6.2 14.1 -13.5 17.2 -16.3 3.2 -2.7 9 -8.3 13.1 -12.4 7.3 -7.3 7.4 -7.3 11.6 -6.7 5 0.8 5.7 1.4 6.1 5 0.1 1.4 0.6 2.9 0.9 3.3 0.4 0.3 0.7 2.5 0.7 4.8 0 4.7 -2.8 8.1 -6.8 8.3 -2.8 0.1 -5.2 1.9 -5.2 3.9 0 0.7 -0.7 1.6 -1.5 1.9 -0.8 0.3 -3 3 -5 6 -2 3 -4 5.4 -4.6 5.4 -0.5 0 -0.9 0.6 -0.9 1.4 0 0.8 -1.3 2.3 -3 3.2 -1.6 1 -3.7 3.3 -4.5 5.1 -0.9 1.8 -2 3.3 -2.5 3.3 -0.5 0 -1.1 0.8 -1.4 1.8 -0.4 1 -1.9 3.3 -3.6 5.1 -1.6 1.9 -3.6 4.8 -4.4 6.6 -0.9 1.7 -4.4 6.3 -7.9 10.1 -3.5 3.8 -6.6 7.7 -7 8.7 -0.5 1.3 -9 6.1 -10 5.6 -0.1 0 -0.8 -0.3 -1.6 -0.6z m13.5 -26.9 c3.4 -2.6 4.5 -5.4 2.2 -5.4 -0.7 0 -3.2 0.9 -5.5 2 -4.2 1.9 -5.6 4.3 -3 5.3 2.2 0.9 2.8 0.7 6.3 -1.9z"/>
 </g>
</svg>